<?xml version="1.0" encoding="UTF-8"?>
<svg version="1.1" xmlns="http://www.w3.org/2000/svg" width="451" height="461">
<path d="M0 0 C1.29768311 0.24943359 1.29768311 0.24943359 2.62158203 0.50390625 C30.07866061 6.00448961 57.2988022 16.39811828 80 33 C81.15438528 33.80087161 82.31075743 34.59888439 83.46875 35.39453125 C90.04578083 39.94819879 96.17232938 44.69160413 102.01171875 50.1875 C104.07099988 52.15610321 104.07099988 52.15610321 107 54 C107 55.32 107 56.64 107 58 C106.34 58 105.68 58 105 58 C105 58.66 105 59.32 105 60 C103.390625 61.55078125 103.390625 61.55078125 101.25 63.3125 C98.08238651 65.98762235 95.56907035 68.73925686 93 72 C92.34 72 91.68 72 91 72 C91 72.66 91 73.32 91 74 C89.37823304 75.71038811 87.70120959 77.3686075 86 79 C85.05500982 79.96133384 84.11362027 80.92621975 83.17578125 81.89453125 C82.2213791 82.86721196 81.26695188 83.83986808 80.3125 84.8125 C79.82716797 85.31458984 79.34183594 85.81667969 78.84179688 86.33398438 C77.59875394 87.59417273 76.30300108 88.80191044 75 90 C74.34 90 73.68 90 73 90 C73 90.66 73 91.32 73 92 C72.34 92 71.68 92 71 92 C70.76514893 92.55719727 70.53029785 93.11439453 70.28833008 93.68847656 C67.77252717 98.20233328 63.7755292 101.63599243 60.15161133 105.27392578 C58.69024349 106.74723409 57.24857566 108.23816795 55.80664062 109.73046875 C54.88431641 110.65988281 53.96199219 111.58929688 53.01171875 112.546875 C52.17084717 113.40120117 51.32997559 114.25552734 50.46362305 115.13574219 C48 117 48 117 45.31665039 117.36572266 C42.25708803 116.88271871 41.0335608 115.70320462 38.75 113.625 C14.48805909 93.34101395 -18.15458832 83.55241097 -49.57226562 86.21826172 C-61.86718773 87.47199123 -73.421117 89.67028948 -85 94 C-86.1653125 94.43054688 -87.330625 94.86109375 -88.53125 95.3046875 C-119.45363845 107.63185587 -143.70011379 132.84529036 -157.16845703 163.04296875 C-170.09364338 193.46231512 -170.29094774 228.10070372 -159 259 C-156.96566974 263.92075248 -154.56259643 268.61548676 -151.96728516 273.26123047 C-151.06764986 274.87839417 -150.20973947 276.51857664 -149.35546875 278.16015625 C-145.02521171 286.15690831 -139.45329108 292.80347978 -133.36474609 299.49755859 C-132.25456271 300.71975333 -131.1650926 301.96073865 -130.08203125 303.20703125 C-109.23925509 325.86222273 -77.04291251 338.75252642 -46.76171875 340.41796875 C-9.43306741 341.64158164 21.57755028 328.5330915 49.03125 303.91796875 C51.06207782 302.14967317 51.06207782 302.14967317 52 300 C52.66 300 53.32 300 54 300 C54.35771484 299.18015625 54.35771484 299.18015625 54.72265625 298.34375 C56.3154423 295.42120679 58.32253817 293.07179358 60.4375 290.5 C64.92534826 284.85768111 68.53753257 278.87909336 72 272.5625 C72.46849365 271.71042969 72.9369873 270.85835938 73.41967773 269.98046875 C75.71463366 265.70811916 77.49119968 261.6197876 79 257 C78.38762765 257.00092179 77.7752553 257.00184359 77.14432621 257.00279331 C62.26448512 257.02484895 47.3846456 257.04141175 32.50479221 257.05181217 C25.30909705 257.05697503 18.11341278 257.06401753 10.91772461 257.07543945 C4.64815306 257.0853866 -1.62141061 257.0918535 -7.89098984 257.09408849 C-11.21265621 257.09539555 -14.53429466 257.09899997 -17.85595512 257.10573006 C-21.55819947 257.11293628 -25.26039631 257.11399112 -28.96264648 257.11352539 C-30.6263604 257.1189183 -30.6263604 257.1189183 -32.32368469 257.12442017 C-33.82767319 257.12235817 -33.82767319 257.12235817 -35.36204529 257.12025452 C-36.23867042 257.12117631 -37.11529554 257.1220981 -38.01848507 257.12304783 C-40 257 -40 257 -41 256 C-41.12931798 253.87692408 -41.1885908 251.74956358 -41.22119141 249.62280273 C-41.2326973 248.95585388 -41.24420319 248.28890503 -41.25605774 247.60174561 C-41.29295546 245.37907605 -41.32251101 243.1563788 -41.3515625 240.93359375 C-41.37469568 239.3815117 -41.39808615 237.82943347 -41.42172241 236.27735901 C-41.47031278 233.00794123 -41.51518844 229.73849749 -41.55761719 226.46899414 C-41.61177487 222.32387179 -41.67575218 218.17897292 -41.74279213 214.0340414 C-41.79352513 210.81742484 -41.83837078 207.60074477 -41.88163376 204.38401985 C-41.90289603 202.85932772 -41.92598665 201.33465974 -41.9510994 199.81002617 C-42.117261 189.48820193 -41.78711134 179.29369853 -41 169 C-23.39926192 168.07620609 -5.82921829 167.83742104 11.79245377 167.87102509 C14.03264619 167.87505878 16.27283604 167.877544 18.51303101 167.87969971 C48.5554373 167.91245272 78.5978939 168.09558782 108.6394043 168.31939697 C113.75722518 168.35737934 118.87504745 168.39110724 123.99291992 168.42132568 C130.07865362 168.45774285 136.16423442 168.50406519 142.24983788 168.55793762 C144.51916205 168.57648457 146.78851633 168.59167564 149.05788612 168.6033783 C152.17977919 168.62013568 155.30132785 168.64907633 158.4230957 168.68115234 C159.34146713 168.6833119 160.25983856 168.68547146 161.20603943 168.68769646 C162.04827057 168.69886057 162.89050171 168.71002468 163.758255 168.7215271 C164.48568059 168.72705786 165.21310617 168.73258862 165.96257496 168.73828697 C168.38320998 169.04922441 169.95569624 169.66804638 172 171 C186.27939619 208.92078061 174.48178328 264.40893069 159.01269531 299.79345703 C155.68584447 307.04227041 151.91431035 314.05437861 148 321 C147.48783936 321.91023926 147.48783936 321.91023926 146.96533203 322.83886719 C138.05241426 338.45571142 126.68877001 352.33087205 114 365 C113.27941406 365.75539063 112.55882812 366.51078125 111.81640625 367.2890625 C81.10589347 399.11728891 37.30935495 419.85959871 -6 427 C-6.67353516 427.11569336 -7.34707031 427.23138672 -8.04101562 427.35058594 C-30.72317511 431.07205027 -55.48910532 430.32100302 -78 426 C-78.88768066 425.83371094 -79.77536133 425.66742188 -80.68994141 425.49609375 C-101.38647257 421.50675703 -121.29341493 414.72391309 -140 405 C-141.13953125 404.40960938 -142.2790625 403.81921875 -143.453125 403.2109375 C-158.05690579 395.22980149 -171.98494239 385.52225251 -184 374 C-185.24616114 372.95374388 -186.49615452 371.9120347 -187.75 370.875 C-209.69637887 351.62767175 -225.93552579 326.37502908 -238 300 C-238.30244629 299.34 -238.60489258 298.68 -238.91650391 298 C-248.98284479 275.66614504 -255.37926965 250.54471243 -256 226 C-256.02578125 225.13165527 -256.0515625 224.26331055 -256.078125 223.36865234 C-257.66459299 162.81515217 -237.86447455 107.49277748 -196.27441406 63.16064453 C-188.97535513 55.54081435 -181.44170644 48.35597923 -173 42 C-172.40944824 41.55479004 -171.81889648 41.10958008 -171.21044922 40.65087891 C-154.15026993 27.90853232 -135.94294883 17.50130953 -116 10 C-115.35933594 9.75701172 -114.71867188 9.51402344 -114.05859375 9.26367188 C-102.99594613 5.14160254 -91.54166264 2.40000376 -80 0 C-79.20480957 -0.16806152 -78.40961914 -0.33612305 -77.59033203 -0.50927734 C-52.7661727 -5.51561251 -24.78295506 -4.78242779 0 0 Z " fill="#1976D0" transform="translate(264,20)"/>
<path d="M0 0 C1.29768311 0.24943359 1.29768311 0.24943359 2.62158203 0.50390625 C30.07866061 6.00448961 57.2988022 16.39811828 80 33 C81.15438528 33.80087161 82.31075743 34.59888439 83.46875 35.39453125 C90.04578083 39.94819879 96.17232938 44.69160413 102.01171875 50.1875 C104.07099988 52.15610321 104.07099988 52.15610321 107 54 C107 55.32 107 56.64 107 58 C106.34 58 105.68 58 105 58 C105 58.66 105 59.32 105 60 C103.390625 61.55078125 103.390625 61.55078125 101.25 63.3125 C98.08238651 65.98762235 95.56907035 68.73925686 93 72 C92.34 72 91.68 72 91 72 C91 72.66 91 73.32 91 74 C89.37823304 75.71038811 87.70120959 77.3686075 86 79 C85.05500982 79.96133384 84.11362027 80.92621975 83.17578125 81.89453125 C82.2213791 82.86721196 81.26695188 83.83986808 80.3125 84.8125 C79.82716797 85.31458984 79.34183594 85.81667969 78.84179688 86.33398438 C77.59875394 87.59417273 76.30300108 88.80191044 75 90 C74.34 90 73.68 90 73 90 C73 90.66 73 91.32 73 92 C72.34 92 71.68 92 71 92 C70.76514893 92.55719727 70.53029785 93.11439453 70.28833008 93.68847656 C67.77252717 98.20233328 63.7755292 101.63599243 60.15161133 105.27392578 C58.69024349 106.74723409 57.24857566 108.23816795 55.80664062 109.73046875 C54.88431641 110.65988281 53.96199219 111.58929688 53.01171875 112.546875 C52.17084717 113.40120117 51.32997559 114.25552734 50.46362305 115.13574219 C48 117 48 117 45.31665039 117.36572266 C42.25708803 116.88271871 41.0335608 115.70320462 38.75 113.625 C14.48805909 93.34101395 -18.15458832 83.55241097 -49.57226562 86.21826172 C-61.86718773 87.47199123 -73.421117 89.67028948 -85 94 C-86.1653125 94.43054688 -87.330625 94.86109375 -88.53125 95.3046875 C-119.45363845 107.63185587 -143.70011379 132.84529036 -157.16845703 163.04296875 C-169.21756134 191.40046145 -168.79573348 221.14798036 -162.48828125 250.7421875 C-161.77492471 255.50170235 -161.77492471 255.50170235 -163 258 C-165.1875 260.11328125 -165.1875 260.11328125 -168 262.3125 C-168.99773437 263.10011719 -169.99546875 263.88773437 -171.0234375 264.69921875 C-172.00570312 265.45847656 -172.98796875 266.21773438 -174 267 C-174.79664063 267.62519531 -175.59328125 268.25039063 -176.4140625 268.89453125 C-178.60157624 270.60666656 -180.79981685 272.30419096 -183 274 C-184.41707975 275.10363646 -185.83373737 276.20781515 -187.25 277.3125 C-188.8329609 278.54214626 -190.41633911 279.77125538 -192 281 C-192.51675293 281.40186523 -193.03350586 281.80373047 -193.56591797 282.21777344 C-195.27146515 283.54315361 -196.97928948 284.86555482 -198.6875 286.1875 C-199.48945801 286.81168823 -199.48945801 286.81168823 -200.30761719 287.44848633 C-210.08603369 295 -210.08603369 295 -213 295 C-213 295.66 -213 296.32 -213 297 C-214.6436814 298.68933922 -216.3142876 300.35259924 -218 302 C-218.639375 302.86625 -219.27875 303.7325 -219.9375 304.625 C-222.42746852 307.49223648 -224.43080904 308.71509125 -228 310 C-230.9140625 310.16015625 -230.9140625 310.16015625 -234 309 C-236.0341545 306.079991 -237.22694107 302.87124133 -238.5 299.5625 C-238.88381836 298.60964111 -239.26763672 297.65678223 -239.66308594 296.67504883 C-240.80732479 293.79454981 -241.91006206 290.90142697 -243 288 C-243.29970703 287.21786133 -243.59941406 286.43572266 -243.90820312 285.62988281 C-263.31468913 234.31509654 -260.03425727 173.90415941 -237.71289062 124.12988281 C-222.98668196 92.54184648 -201.00763708 63.08767473 -173 42 C-172.40944824 41.55479004 -171.81889648 41.10958008 -171.21044922 40.65087891 C-154.15026993 27.90853232 -135.94294883 17.50130953 -116 10 C-115.35933594 9.75701172 -114.71867188 9.51402344 -114.05859375 9.26367188 C-102.99594613 5.14160254 -91.54166264 2.40000376 -80 0 C-79.20480957 -0.16806152 -78.40961914 -0.33612305 -77.59033203 -0.50927734 C-52.7661727 -5.51561251 -24.78295506 -4.78242779 0 0 Z " fill="#FE3D00" transform="translate(264,20)"/>
<path d="M0 0 C2.11776542 3.17664813 3.22898137 6.11245433 4.5625 9.6875 C10.5720725 25.0320041 19.15093541 37.65636655 30 50 C30.72574219 50.84046875 31.45148438 51.6809375 32.19921875 52.546875 C53.47093181 75.44844427 85.38350513 88.72097983 116.23828125 90.41796875 C142.67432882 91.28452801 167.78046457 85.48525402 190.02001953 70.96972656 C193.98175573 68.41132077 197.46801872 67.0927366 202 66 C202.71929687 66.72703125 203.43859375 67.4540625 204.1796875 68.203125 C214.78768895 78.72297131 226.2527851 88.14581085 238.37109375 96.859375 C241.02702836 99.02200824 242.91021134 101.30276735 245 104 C246.66279327 105.0064275 248.32983484 106.00585407 250 107 C251.02273349 107.97673754 252.02155254 108.97890227 253 110 C254.83004228 111.90940636 256.17605761 113.10123313 258.5 114.4375 C262.07217658 116.67011036 264.37562208 119.75170557 267 123 C262.65538728 128.46002835 258.14099689 132.44778112 252.4375 136.4375 C251.64174561 137.00170654 250.84599121 137.56591309 250.02612305 138.1472168 C222.06412123 157.80311597 190.84109543 171.42062802 157 177 C156.32646484 177.11569336 155.65292969 177.23138672 154.95898438 177.35058594 C132.27682489 181.07205027 107.51089468 180.32100302 85 176 C84.11231934 175.83371094 83.22463867 175.66742188 82.31005859 175.49609375 C61.61352743 171.50675703 41.70658507 164.72391309 23 155 C21.86046875 154.40960938 20.7209375 153.81921875 19.546875 153.2109375 C4.94309421 145.22980149 -8.98494239 135.52225251 -21 124 C-22.24616114 122.95374388 -23.49615452 121.9120347 -24.75 120.875 C-41.82910929 105.89634568 -54.55257441 87.57220769 -65.81689453 68.02197266 C-66.80295626 66.33675532 -67.84596383 64.68502132 -68.90234375 63.04296875 C-69.26457031 62.36878906 -69.62679687 61.69460938 -70 61 C-69.67 60.34 -69.34 59.68 -69 59 C-68.113125 58.87625 -67.22625 58.7525 -66.3125 58.625 C-60.71416292 57.56870998 -57.42040683 54.84290608 -54.25 50.25 C-53.5075 49.1775 -52.765 48.105 -52 47 C-51.34 47 -50.68 47 -50 47 C-50 46.34 -50 45.68 -50 45 C-48.48828125 43.84375 -48.48828125 43.84375 -46.3125 42.5 C-42.22656462 39.86827154 -38.33851408 37.03974084 -34.5 34.0625 C-33.93901611 33.62744141 -33.37803223 33.19238281 -32.80004883 32.74414062 C-31.19825362 31.49837773 -29.59906303 30.24926799 -28 29 C-26.50013284 27.83316256 -25.00014848 26.66647574 -23.5 25.5 C-22.80261719 24.95601563 -22.10523438 24.41203125 -21.38671875 23.8515625 C-19.51891479 22.40256237 -17.64639092 20.96063802 -15.76953125 19.5234375 C-15.19847656 19.08580078 -14.62742188 18.64816406 -14.0390625 18.19726562 C-12.92400774 17.34331531 -11.80817656 16.49037742 -10.69140625 15.63867188 C-9.12039325 14.43513593 -7.56015106 13.21758339 -6 12 C-5.4337793 11.57662354 -4.86755859 11.15324707 -4.28417969 10.71704102 C-2.79005819 9.55854592 -1.38742765 8.28434982 0 7 C0.50196294 3.28926495 0.50196294 3.28926495 0 0 Z " fill="#4CAE4F" transform="translate(101,270)"/>
<path d="M0 0 C3.14555038 0.610571 5.18978529 1.6303849 7.765625 3.51953125 C8.48290771 4.04135986 9.20019043 4.56318848 9.93920898 5.10083008 C10.70177002 5.66568115 11.46433105 6.23053223 12.25 6.8125 C13.4412146 7.68394653 13.4412146 7.68394653 14.65649414 8.57299805 C21.28002797 13.43122156 27.8492898 18.36233193 34.41015625 23.3046875 C39.22951621 26.93086213 44.1079366 30.47272881 49 34 C51.32716149 35.67952548 53.65412109 37.35933016 55.98095703 39.03930664 C57.58962358 40.20048187 59.19865917 41.36114603 60.80810547 42.52124023 C61.5507666 43.05692627 62.29342773 43.5926123 63.05859375 44.14453125 C63.72173584 44.62253174 64.38487793 45.10053223 65.06811523 45.59301758 C65.70563721 46.05732178 66.34315918 46.52162598 67 47 C67.7412915 47.49201904 68.48258301 47.98403809 69.24633789 48.4909668 C70.11440063 49.23793823 70.11440063 49.23793823 71 50 C71 50.99 71 51.98 71 53 C70.34 53 69.68 53 69 53 C69.05994141 54.93746094 69.05994141 54.93746094 69.12109375 56.9140625 C69.12011026 61.94364477 68.21712014 66.499771 67.0625 71.375 C65.53274894 78.25688444 64.24044937 84.93287936 64 92 C63.96003906 93.03640625 63.92007813 94.0728125 63.87890625 95.140625 C63.60554527 109.22675527 65.58270909 122.99944075 68.51171875 136.7421875 C69.22507529 141.50170235 69.22507529 141.50170235 68 144 C65.8125 146.11328125 65.8125 146.11328125 63 148.3125 C62.00226563 149.10011719 61.00453125 149.88773438 59.9765625 150.69921875 C58.99429688 151.45847656 58.01203125 152.21773437 57 153 C56.20335938 153.62519531 55.40671875 154.25039063 54.5859375 154.89453125 C52.39842376 156.60666656 50.20018315 158.30419096 48 160 C46.58292025 161.10363646 45.16626263 162.20781515 43.75 163.3125 C42.1670391 164.54214626 40.58366089 165.77125538 39 167 C38.48324707 167.40186523 37.96649414 167.80373047 37.43408203 168.21777344 C35.72853485 169.54315361 34.02071052 170.86555482 32.3125 172.1875 C31.77786133 172.60362549 31.24322266 173.01975098 30.69238281 173.44848633 C20.91396631 181 20.91396631 181 18 181 C18 181.66 18 182.32 18 183 C16.3563186 184.68933922 14.6857124 186.35259924 13 188 C12.360625 188.86625 11.72125 189.7325 11.0625 190.625 C8.57253148 193.49223648 6.56919096 194.71509125 3 196 C0.0859375 196.16015625 0.0859375 196.16015625 -3 195 C-5.0341545 192.079991 -6.22694107 188.87124133 -7.5 185.5625 C-7.88381836 184.60964111 -8.26763672 183.65678223 -8.66308594 182.67504883 C-9.80732479 179.79454981 -10.91006206 176.90142697 -12 174 C-12.44956055 172.82679199 -12.44956055 172.82679199 -12.90820312 171.62988281 C-31.97989389 121.2003648 -29.00145515 62.27597493 -8 13 C-6.39606019 9.63305197 -4.72469208 6.30657807 -3 3 C-2.01 3 -1.02 3 0 3 C0 2.01 0 1.02 0 0 Z " fill="#FDC008" transform="translate(33,134)"/>
<path d="M0 0 C2.24019243 0.0040337 4.48038227 0.00651892 6.72057724 0.00867462 C36.76298353 0.04142763 66.80544014 0.22456274 96.84695053 0.44837189 C101.96477141 0.48635425 107.08259368 0.52008216 112.20046616 0.5503006 C118.28619986 0.58671777 124.37178066 0.6330401 130.45738411 0.68691254 C132.72670828 0.70545949 134.99606257 0.72065055 137.26543236 0.73235321 C140.38732543 0.74911059 143.50887409 0.77805124 146.63064194 0.81012726 C147.54901337 0.81228682 148.4673848 0.81444637 149.41358566 0.81667137 C150.2558168 0.82783548 151.09804794 0.8389996 151.96580124 0.85050201 C152.69322682 0.85603277 153.42065241 0.86156353 154.17012119 0.86726189 C156.59075621 1.17819932 158.16324248 1.79702129 160.20754623 3.12897491 C171.17056575 32.24268898 165.51449425 77.46555523 156.20754623 106.12897491 C155.13654894 102.86119541 155.312489 100.79645982 156.17507553 97.49030304 C160.09589624 81.4093664 160.98328889 66.13636318 161.02004623 49.62897491 C161.04326658 47.13676625 161.06864703 44.64457675 161.09621811 42.15241241 C161.15810473 36.14459115 161.19380846 30.1370897 161.20754623 24.12897491 C160.54754623 24.12897491 159.88754623 24.12897491 159.20754623 24.12897491 C159.1469603 23.34651398 159.08637436 22.56405304 159.02395248 21.75788116 C158.94016342 20.7459671 158.85637436 19.73405304 158.77004623 18.69147491 C158.6888353 17.68213898 158.60762436 16.67280304 158.52395248 15.63288116 C158.47543155 13.19256713 158.47543155 13.19256713 157.20754623 12.12897491 C157.16661686 9.79600058 157.165129 7.46192267 157.20754623 5.12897491 C130.51340896 5.10564398 103.8192732 5.08799478 77.12512779 5.07716274 C64.73137319 5.0720002 52.33762491 5.06495829 39.94387436 5.05353546 C29.14507588 5.04358736 18.34628197 5.03712118 7.54747903 5.03488642 C1.82637044 5.03357953 -3.89472506 5.03049503 -9.61582947 5.02324486 C-14.99520538 5.01648266 -20.37456273 5.01435837 -25.75394249 5.01586723 C-27.7333238 5.015591 -29.71270571 5.01358706 -31.69208336 5.00976944 C-34.38452941 5.0048291 -37.07690443 5.00597792 -39.76935196 5.0087204 C-40.56117068 5.00580756 -41.35298939 5.00289472 -42.16880262 4.99989361 C-46.10947931 4.92814661 -46.10947931 4.92814661 -49.79245377 6.12897491 C-50.12245377 32.85897491 -50.45245377 59.58897491 -50.79245377 87.12897491 C-42.14155533 87.11737335 -33.49065689 87.10577179 -24.57761002 87.09381866 C-18.41908325 87.08806327 -12.2605585 87.08293635 -6.10203075 87.07872105 C1.88617735 87.07316923 9.87437506 87.06610953 17.86257553 87.05353546 C24.1848848 87.04358836 30.50718625 87.03712142 36.82950312 87.03488642 C40.17911373 87.03357936 43.52870197 87.03049379 46.87830544 87.02324486 C50.61168268 87.01603871 54.34501282 87.01498379 58.07839584 87.01544952 C59.19688919 87.01185425 60.31538254 87.00825897 61.46776962 87.00455475 C62.47884277 87.00592941 63.48991592 87.00730408 64.53162766 87.0087204 C65.85762686 87.00733771 65.85762686 87.00733771 67.21041393 87.00592709 C69.20754623 87.12897491 69.20754623 87.12897491 70.20754623 88.12897491 C69.79192746 95.74865248 67.94590527 103.77939359 62.20754623 109.12897491 C61.03179912 111.22887144 61.03179912 111.22887144 60.20754623 113.12897491 C59.54754623 113.12897491 58.88754623 113.12897491 58.20754623 113.12897491 C57.71254623 115.10897491 57.71254623 115.10897491 57.20754623 117.12897491 C56.54754623 117.12897491 55.88754623 117.12897491 55.20754623 117.12897491 C54.71254623 119.10897491 54.71254623 119.10897491 54.20754623 121.12897491 C53.54754623 121.12897491 52.88754623 121.12897491 52.20754623 121.12897491 C51.93942123 121.87147491 51.67129623 122.61397491 51.39504623 123.37897491 C50.25477873 126.0195944 49.11374318 127.98450336 47.20754623 130.12897491 C46.54754623 130.12897491 45.88754623 130.12897491 45.20754623 130.12897491 C44.98067123 130.66522491 44.75379623 131.20147491 44.52004623 131.75397491 C42.77372567 134.91398355 40.56726134 137.39667322 38.20754623 140.12897491 C36.88754623 139.79897491 35.56754623 139.46897491 34.20754623 139.12897491 C35.15871758 137.95646181 36.11871632 136.79110476 37.08254623 135.62897491 C37.61621811 134.97928741 38.14988998 134.32959991 38.69973373 133.66022491 C39.19731186 133.15491241 39.69488998 132.64959991 40.20754623 132.12897491 C40.86754623 132.12897491 41.52754623 132.12897491 42.20754623 132.12897491 C42.4460228 131.58241241 42.68449936 131.03584991 42.93020248 130.47272491 C44.52298853 127.55018171 46.53008441 125.2007685 48.64504623 122.62897491 C53.1328945 116.98665603 56.7450788 111.00806828 60.20754623 104.69147491 C60.91028671 103.41336945 60.91028671 103.41336945 61.62722397 102.10944366 C63.9221799 97.83709407 65.69874592 93.74876251 67.20754623 89.12897491 C66.59517388 89.12989671 65.98280153 89.1308185 65.35187244 89.13176823 C50.47203135 89.15382387 35.59219183 89.17038667 20.71233845 89.18078709 C13.51664329 89.18594994 6.32095902 89.19299245 -0.87472916 89.20441437 C-7.14430071 89.21436152 -13.41386438 89.22082842 -19.68344361 89.22306341 C-23.00510997 89.22437046 -26.32674843 89.22797489 -29.64840889 89.23470497 C-33.35065324 89.24191119 -37.05285007 89.24296603 -40.75510025 89.24250031 C-42.41881416 89.24789322 -42.41881416 89.24789322 -44.11613846 89.25339508 C-45.11879745 89.25202042 -46.12145645 89.25064575 -47.15449905 89.24922943 C-48.03112418 89.25015122 -48.90774931 89.25107302 -49.81093884 89.25202274 C-51.79245377 89.12897491 -51.79245377 89.12897491 -52.79245377 88.12897491 C-52.92177175 86.00589899 -52.98104456 83.8785385 -53.01364517 81.75177765 C-53.02515106 81.0848288 -53.03665695 80.41787994 -53.04851151 79.73072052 C-53.08540922 77.50805096 -53.11496478 75.28535371 -53.14401627 73.06256866 C-53.16714944 71.51048662 -53.19053992 69.95840839 -53.21417618 68.40633392 C-53.26276654 65.13691614 -53.3076422 61.8674724 -53.35007095 58.59796906 C-53.40422863 54.45284671 -53.46820595 50.30794783 -53.5352459 46.16301632 C-53.5859789 42.94639975 -53.63082454 39.72971969 -53.67408752 36.51299477 C-53.6953498 34.98830263 -53.71844042 33.46363466 -53.74355316 31.93900108 C-53.90971476 21.61717685 -53.57956511 11.42267345 -52.79245377 1.12897491 C-35.19171569 0.205181 -17.62167206 -0.03360405 0 0 Z " fill="#275179" transform="translate(275.79245376586914,187.87102508544922)"/>
<path d="M0 0 C69.63 0 139.26 0 211 0 C219.98929109 31.46251881 217.00988912 72.17167126 207 103 C205.9290027 99.7322205 206.10494276 97.6674849 206.9675293 94.36132812 C210.88835001 78.28039148 211.77574266 63.00738826 211.8125 46.5 C211.83572034 44.00779133 211.8611008 41.51560183 211.88867188 39.0234375 C211.95055849 33.01561623 211.98626223 27.00811478 212 21 C211.34 21 210.68 21 210 21 C209.93941406 20.21753906 209.87882813 19.43507812 209.81640625 18.62890625 C209.73261719 17.61699219 209.64882813 16.60507813 209.5625 15.5625 C209.48128906 14.55316406 209.40007812 13.54382813 209.31640625 12.50390625 C209.26788532 10.06359221 209.26788532 10.06359221 208 9 C207.95907063 6.66702567 207.95758277 4.33294775 208 2 C181.32313345 1.97666377 154.64626842 1.95901725 127.96939373 1.94818783 C115.58351488 1.94302642 103.19764236 1.93598665 90.81176758 1.92456055 C80.01918544 1.914609 69.22660789 1.90814544 58.43402129 1.90591151 C52.71679321 1.9046052 46.99957824 1.90152439 41.28235435 1.89426994 C35.90543765 1.88750233 30.52853952 1.88538457 25.15161896 1.88689232 C23.17427024 1.88661633 21.19692093 1.88461559 19.21957588 1.88079453 C16.52747958 1.87584574 13.83545414 1.87700615 11.14335632 1.87974548 C10.35445045 1.87683264 9.56554457 1.8739198 8.75273246 1.87091869 C5.5657943 1.87973083 3.04651002 1.98449666 0 3 C0 2.01 0 1.02 0 0 Z " fill="#2373BD" transform="translate(225,191)"/>
<path d="M0 0 C40.26 0 80.52 0 122 0 C120.86430063 9.08559499 120.86430063 9.08559499 119.125 13.3125 C118.79757812 14.13363281 118.47015625 14.95476562 118.1328125 15.80078125 C116.99147594 18.01654844 115.80697233 19.31545127 114 21 C112.82425289 23.09989652 112.82425289 23.09989652 112 25 C111.34 25 110.68 25 110 25 C109.67 26.32 109.34 27.64 109 29 C108.34 29 107.68 29 107 29 C106.67 30.32 106.34 31.64 106 33 C105.34 33 104.68 33 104 33 C103.731875 33.7425 103.46375 34.485 103.1875 35.25 C102.04723249 37.89061949 100.90619694 39.85552844 99 42 C98.34 42 97.68 42 97 42 C96.773125 42.53625 96.54625 43.0725 96.3125 43.625 C94.56617944 46.78500863 92.3597151 49.2676983 90 52 C88.02 51.505 88.02 51.505 86 51 C86.95117134 49.8274869 87.91117009 48.66212985 88.875 47.5 C89.40867187 46.8503125 89.94234375 46.200625 90.4921875 45.53125 C90.98976563 45.0259375 91.48734375 44.520625 92 44 C92.66 44 93.32 44 94 44 C94.23847656 43.4534375 94.47695313 42.906875 94.72265625 42.34375 C96.3154423 39.42120679 98.32253817 37.07179358 100.4375 34.5 C104.92534826 28.85768111 108.53753257 22.87909336 112 16.5625 C112.70274048 15.28439453 112.70274048 15.28439453 113.41967773 13.98046875 C115.76170032 9.62049865 117.40941349 5.77175954 119 1 C79.73 1 40.46 1 0 1 C0 0.67 0 0.34 0 0 Z " fill="#1E4568" transform="translate(224,276)"/>
<path d="M0 0 C1.21437465 3.48227962 0.75626976 5.49413744 -0.4375 8.9375 C-1.38640784 11.69060931 -2.00228752 13.73998526 -1.9765625 16.6640625 C-2 19 -2 19 -3.9375 21.4375 C-7.5933165 26.30761597 -6.84039978 33.17459181 -7 39 C-7.99 38.67 -8.98 38.34 -10 38 C-10.33 40.97 -10.66 43.94 -11 47 C-11.66 47 -12.32 47 -13 47 C-12.96519531 47.83144531 -12.93039063 48.66289062 -12.89453125 49.51953125 C-12.86746094 50.60621094 -12.84039063 51.69289062 -12.8125 52.8125 C-12.77769531 53.89144531 -12.74289063 54.97039062 -12.70703125 56.08203125 C-13 59 -13 59 -14.47485352 60.42529297 C-16.36876195 62.38074509 -16.46673488 63.43152264 -16.6953125 66.11328125 C-16.77088379 66.93932861 -16.84645508 67.76537598 -16.92431641 68.61645508 C-16.99054199 69.5061499 -17.05676758 70.39584473 -17.125 71.3125 C-17.20282715 72.22862061 -17.2806543 73.14474121 -17.36083984 74.08862305 C-18.19274296 84.37579394 -18.63269765 94.68716525 -19 105 C-19.33 105 -19.66 105 -20 105 C-20.86856036 69.27321722 -17.01096123 32.12596393 0 0 Z " fill="#E2B221" transform="translate(28,141)"/>
<path d="M0 0 C0.66 0 1.32 0 2 0 C1.70833333 1.60416667 1.41666667 3.20833333 1.125 4.8125 C0.94324219 5.81925781 0.76148437 6.82601562 0.57421875 7.86328125 C0.21203505 9.84174048 -0.15913938 11.81859467 -0.54296875 13.79296875 C-4.6794016 35.34596095 -3.03115523 56.42728117 1.51171875 77.7421875 C2.23182097 82.5467095 2.23182097 82.5467095 1 85 C-1.50390625 87.359375 -1.50390625 87.359375 -4.5625 89.75 C-5.57441406 90.54921875 -6.58632812 91.3484375 -7.62890625 92.171875 C-8.41136719 92.77515625 -9.19382812 93.3784375 -10 94 C-10.66 93.67 -11.32 93.34 -12 93 C-8.56638098 89.36440339 -5.2026393 86.63886654 -1 84 C-1.144375 82.700625 -1.28875 81.40125 -1.4375 80.0625 C-1.55931641 78.96615234 -1.55931641 78.96615234 -1.68359375 77.84765625 C-1.81886614 75.98859771 -1.81886614 75.98859771 -3 75 C-3.248588 72.67984531 -3.3833997 70.36029969 -3.5234375 68.03125 C-3.93960562 65.38414787 -4.56083759 63.49477583 -5.5234375 61.03125 C-7.68984215 54.7909637 -7.36154995 48.53264371 -7.25 42 C-7.24484375 40.76121094 -7.2396875 39.52242187 -7.234375 38.24609375 C-7.15453696 29.15453696 -7.15453696 29.15453696 -6 28 C-5.89085391 26.12632538 -5.8138946 24.25076302 -5.75 22.375 C-5.22660572 14.38214836 -2.78660956 7.43438638 0 0 Z " fill="#EDBD28" transform="translate(100,193)"/>
<path d="M0 0 C0.66 0.33 1.32 0.66 2 1 C0.71937515 2.7074998 -0.61767557 4.37373596 -2 6 C-2.66 6 -3.32 6 -4 6 C-4 7.98 -4 9.96 -4 12 C-8.455 12.495 -8.455 12.495 -13 13 C-13.226875 14.11375 -13.45375 15.2275 -13.6875 16.375 C-15 20 -15 20 -17.4375 21.4375 C-20 22 -20 22 -23 22 C-23.04125 22.5775 -23.0825 23.155 -23.125 23.75 C-24.4299887 27.10568523 -27.02464076 28.0545728 -30 30 C-30.95305251 31.05146555 -31.87116209 32.13575908 -32.75 33.25 C-33.86375 34.61125 -33.86375 34.61125 -35 36 C-35.66 36 -36.32 36 -37 36 C-37.433125 37.11375 -37.433125 37.11375 -37.875 38.25 C-40.38595263 44.38788422 -43.82685962 48.87986305 -48.5625 53.5 C-51.13332925 55.9763149 -51.13332925 55.9763149 -53.125 59.25 C-55 62 -55 62 -58 63 C-56.51944619 58.74043876 -54.30942471 55.25408982 -51.6875 51.625 C-51.25018555 51.01849609 -50.81287109 50.41199219 -50.36230469 49.78710938 C-36.24816482 30.55400474 -19.22746224 14.04871883 0 0 Z " fill="#C23E12" transform="translate(99,56)"/>
<path d="M0 0 C1.04474487 0.00157104 1.04474487 0.00157104 2.1105957 0.00317383 C19.1928059 0.05754371 19.1928059 0.05754371 26.6875 2.6875 C27.81865234 3.08195312 27.81865234 3.08195312 28.97265625 3.484375 C31.35691773 4.35786145 33.72072684 5.26796609 36.0625 6.25 C32.06055957 7.79316469 28.41534248 6.73198555 24.375 5.875 C22.92488949 5.58776439 21.47436948 5.30258808 20.0234375 5.01953125 C19.33217773 4.88369629 18.64091797 4.74786133 17.92871094 4.60791016 C-3.43469869 0.51074133 -25.64833232 4.2080552 -45.9375 11.25 C-48.26349718 11.94705821 -50.59729022 12.60143611 -52.9375 13.25 C-52.9375 11.93 -52.9375 10.61 -52.9375 9.25 C-51.16891309 8.57739649 -49.39753984 7.91211605 -47.625 7.25 C-46.63886719 6.87875 -45.65273437 6.5075 -44.63671875 6.125 C-41.9375 5.25 -41.9375 5.25 -38.9375 5.25 C-38.9375 4.59 -38.9375 3.93 -38.9375 3.25 C-25.92208627 0.93369756 -13.19570076 -0.04374932 0 0 Z " fill="#AA3A17" transform="translate(224.9375,102.75)"/>
<path d="M0 0 C0.79979279 -0.00067474 1.59958557 -0.00134949 2.4236145 -0.00204468 C30.61171621 0.03561971 56.50030848 5.4196907 82.875 15.25 C79.66282235 16.32072588 78.88696921 16.19578406 75.75 15.375 C71.78995009 14.39952278 67.98604576 13.92111552 63.91796875 13.69140625 C61.875 13.25 61.875 13.25 60.09326172 11.79321289 C57.45141705 9.95531941 55.5106184 9.59506608 52.33984375 9.1171875 C51.28345703 8.95089844 50.22707031 8.78460938 49.13867188 8.61328125 C47.4922168 8.37158203 47.4922168 8.37158203 45.8125 8.125 C43.63381747 7.79099484 41.45541724 7.45514148 39.27734375 7.1171875 C37.83089478 6.90231689 37.83089478 6.90231689 36.35522461 6.68310547 C33.875 6.25 33.875 6.25 30.875 5.25 C28.64925665 5.02548542 26.41918481 4.84217122 24.1875 4.6875 C23.00800781 4.60371094 21.82851562 4.51992188 20.61328125 4.43359375 C19.25783203 4.34271484 19.25783203 4.34271484 17.875 4.25 C17.875 3.26 17.875 2.27 17.875 1.25 C3.355 1.58 -11.165 1.91 -26.125 2.25 C-26.125 1.92 -26.125 1.59 -26.125 1.25 C-17.43756835 0.02307343 -8.75551253 0.00663765 0 0 Z " fill="#902F0F" transform="translate(222.125,16.75)"/>
<path d="M0 0 C8.01615022 8.01615022 5.39653663 31.13335823 5.4375 42.1875 C5.43690604 62.65982169 3.34629606 83.4547584 -3 103 C-4.06786194 99.74109688 -3.89775493 97.70564383 -3.01708984 94.4140625 C1.11403143 77.78634972 1.62840268 62.07111065 1.375 45 C1.35843561 42.38282573 1.3441026 39.76563635 1.33203125 37.1484375 C1.30950104 23.03252135 1.30950104 23.03252135 0 9 C-0.05915294 7.3342531 -0.08854052 5.66659344 -0.0625 4 C-0.05347656 3.236875 -0.04445313 2.47375 -0.03515625 1.6875 C-0.02355469 1.130625 -0.01195312 0.57375 0 0 Z " fill="#1D4E7D" transform="translate(435,191)"/>
<path d="M0 0 C2.19029367 3.2854405 3.56644608 6.66119557 5 10.3125 C5.39058594 11.28993164 5.39058594 11.28993164 5.7890625 12.28710938 C7.32183317 16.15387174 8.7228029 20.03946093 10 24 C8.109375 23.75390625 8.109375 23.75390625 6 23 C4.953125 21.15234375 4.953125 21.15234375 4.25 18.9375 C4.00765625 18.20402344 3.7653125 17.47054688 3.515625 16.71484375 C3.34546875 16.14894531 3.1753125 15.58304687 3 15 C1.02 15.99 1.02 15.99 -1 17 C-1.33 16.67 -1.66 16.34 -2 16 C-2.33 16.66 -2.66 17.32 -3 18 C-4.2375 17.7834375 -4.2375 17.7834375 -5.5 17.5625 C-10.14604054 18.14325507 -11.88614969 20.28633492 -15.0703125 23.56640625 C-17 25 -17 25 -19.2421875 24.71484375 C-19.82226562 24.47894531 -20.40234375 24.24304688 -21 24 C-15.71196404 19.15137104 -10.17274709 14.84808951 -4.3203125 10.69921875 C-1.95861005 9.06041451 -1.95861005 9.06041451 0 7 C0.16677282 3.41656024 0.16677282 3.41656024 0 0 Z " fill="#4E9F4B" transform="translate(101,270)"/>
<path d="M0 0 C2.31 0 4.62 0 7 0 C6.34 1.98 5.68 3.96 5 6 C6.32 6.33 7.64 6.66 9 7 C9.103125 8.11375 9.20625 9.2275 9.3125 10.375 C9.539375 11.57125 9.76625 12.7675 10 14 C10.99 14.66 11.98 15.32 13 16 C14.03485877 18.31808364 15.0355414 20.65175298 16 23 C16.66 23.66 17.32 24.32 18 25 C18.144375 25.680625 18.28875 26.36125 18.4375 27.0625 C18.623125 27.701875 18.80875 28.34125 19 29 C19.99 29.33 20.98 29.66 22 30 C22 30.99 22 31.98 22 33 C23.64488294 34.68816933 25.31337542 36.35353315 27 38 C28.375 40.1875 28.375 40.1875 29 42 C28.67 42.66 28.34 43.32 28 44 C19.05005314 32.85587263 11.28195385 21.40093865 4.16308594 9.00585938 C3.19407609 7.33470386 2.18399516 5.68744753 1.1640625 4.046875 C0 2 0 2 0 0 Z " fill="#4E8643" transform="translate(31,329)"/>
<path d="M0 0 C0.33 0 0.66 0 1 0 C1.33 3.3 1.66 6.6 2 10 C2.66 9.34 3.32 8.68 4 8 C4.85298376 11.67387495 5.10789471 15.0447393 5.0625 18.8125 C5.05347656 19.78832031 5.04445313 20.76414062 5.03515625 21.76953125 C5.02355469 22.50558594 5.01195312 23.24164063 5 24 C5.66 24 6.32 24 7 24 C7.13277344 25.19238281 7.26554687 26.38476562 7.40234375 27.61328125 C7.58055983 29.17970678 7.75895456 30.74611198 7.9375 32.3125 C8.02451172 33.09818359 8.11152344 33.88386719 8.20117188 34.69335938 C8.28818359 35.45068359 8.37519531 36.20800781 8.46484375 36.98828125 C8.58267212 38.03302612 8.58267212 38.03302612 8.70288086 39.09887695 C8.97996783 41.21648234 8.97996783 41.21648234 10 44 C10.03954234 46.33299825 10.04401732 48.66708189 10 51 C7.56157747 47.34236621 6.64910907 43.63866547 5.5625 39.4375 C5.34440674 38.59703125 5.12631348 37.7565625 4.90161133 36.890625 C1.85013729 24.79770454 -0.74533565 12.53268098 0 0 Z " fill="#F3BD24" transform="translate(9,248)"/>
<path d="M0 0 C0.33 0 0.66 0 1 0 C0.98428955 0.94915283 0.98428955 0.94915283 0.96826172 1.91748047 C0.70984433 20.00342641 1.7413596 37.05187679 5.51171875 54.7421875 C6.23182097 59.5467095 6.23182097 59.5467095 5 62 C2.49609375 64.359375 2.49609375 64.359375 -0.5625 66.75 C-1.57441406 67.54921875 -2.58632812 68.3484375 -3.62890625 69.171875 C-4.41136719 69.77515625 -5.19382812 70.3784375 -6 71 C-6.66 70.67 -7.32 70.34 -8 70 C-4.56638098 66.36440339 -1.2026393 63.63886654 3 61 C2.855625 59.700625 2.71125 58.40125 2.5625 57.0625 C2.48128906 56.33160156 2.40007812 55.60070312 2.31640625 54.84765625 C2.18113386 52.98859771 2.18113386 52.98859771 1 52 C0.78933632 49.71195833 0.63135159 47.41896178 0.5 45.125 C0.22167685 39.97268808 0.22167685 39.97268808 -1 35 C-1.09472796 33.02912223 -1.13072182 31.0551831 -1.1328125 29.08203125 C-1.13474609 27.32342773 -1.13474609 27.32342773 -1.13671875 25.52929688 C-1.13285156 24.30275391 -1.12898438 23.07621094 -1.125 21.8125 C-1.12886719 20.60529297 -1.13273437 19.39808594 -1.13671875 18.15429688 C-1.12999833 12.00847601 -0.95311986 6.07424802 0 0 Z " fill="#977819" transform="translate(96,216)"/>
<path d="M0 0 C0.99 0.33 1.98 0.66 3 1 C2.04882866 2.1725131 1.08882991 3.33787015 0.125 4.5 C-0.67550781 5.47453125 -0.67550781 5.47453125 -1.4921875 6.46875 C-1.98976563 6.9740625 -2.48734375 7.479375 -3 8 C-3.66 8 -4.32 8 -5 8 C-5.433125 9.11375 -5.433125 9.11375 -5.875 10.25 C-8.38595263 16.38788422 -11.82685962 20.87986305 -16.5625 25.5 C-19.13332925 27.9763149 -19.13332925 27.9763149 -21.125 31.25 C-23 34 -23 34 -26 35 C-24.5193118 30.74005212 -22.30833404 27.25515702 -19.6875 23.625 C-19.25961182 23.02792236 -18.83172363 22.43084473 -18.39086914 21.81567383 C-12.82525324 14.19889183 -6.6758097 6.6758097 0 0 Z " fill="#B44019" transform="translate(67,84)"/>
<path d="M0 0 C-1.74256932 1.17773651 -3.49436407 2.34183179 -5.25 3.5 C-6.22453125 4.1496875 -7.1990625 4.799375 -8.203125 5.46875 C-11 7 -11 7 -15 7 C-15 7.66 -15 8.32 -15 9 C-16.45706726 9.50367757 -17.91570096 10.00282556 -19.375 10.5 C-20.18710938 10.7784375 -20.99921875 11.056875 -21.8359375 11.34375 C-24 12 -24 12 -26 12 C-26.2165625 13.11375 -26.2165625 13.11375 -26.4375 14.25 C-28.83062026 18.46189167 -32.54943887 19.46532375 -37 21 C-40.0625 21.75 -40.0625 21.75 -42 22 C-37.47994715 16.75595601 -31.88286741 13.81973186 -25.875 10.5 C-24.89273438 9.94441406 -23.91046875 9.38882813 -22.8984375 8.81640625 C-4.46884598 -1.48961533 -4.46884598 -1.48961533 0 0 Z " fill="#AE3B17" transform="translate(143,34)"/>
<path d="M0 0 C0 0.66 0 1.32 0 2 C-18.68756236 2.8499484 -37.29615866 3.13288334 -56 3 C-56 2.67 -56 2.34 -56 2 C-51.75017639 1.01800192 -47.53100403 0.6680992 -43.1875 0.4375 C-42.40012451 0.3950415 -41.61274902 0.35258301 -40.80151367 0.30883789 C-27.21843144 -0.31978599 -13.59353295 -0.08183566 0 0 Z " fill="#C6421B" transform="translate(240,18)"/>
<path d="M0 0 C-9.28754466 6.19169644 -22.63363033 5.18659382 -33.33154297 5.18530273 C-35.3918032 5.18751807 -37.45155077 5.20581846 -39.51171875 5.22460938 C-40.81496094 5.22654297 -42.11820313 5.22847656 -43.4609375 5.23046875 C-45.23670166 5.23663208 -45.23670166 5.23663208 -47.04833984 5.24291992 C-50 5 -50 5 -53 3 C-52.14994385 2.98541748 -51.2998877 2.97083496 -50.42407227 2.95581055 C-29.12702791 2.68487177 -29.12702791 2.68487177 -8.1171875 -0.4765625 C-5.01722192 -0.9971081 -2.99935365 -0.84887368 0 0 Z " fill="#519354" transform="translate(259,358)"/>
<path d="M0 0 C0.66 0 1.32 0 2 0 C0.27483885 3.9571493 -2.31461194 7.23379119 -4.9375 10.625 C-5.38029297 11.21023438 -5.82308594 11.79546875 -6.27929688 12.3984375 C-8.37987588 15.12825105 -10.10912194 17.07274796 -13 19 C-12.835 17.783125 -12.67 16.56625 -12.5 15.3125 C-12.16774758 12.82935031 -12.01654898 10.82209847 -12.25 8.3125 C-11.85543108 4.66273749 -9.75101854 3.23920114 -7 1 C-6.01 1 -5.02 1 -4 1 C-4 1.99 -4 2.98 -4 4 C-2.68 3.34 -1.36 2.68 0 2 C0 1.34 0 0.68 0 0 Z " fill="#1A60A4" transform="translate(398,358)"/>
<path d="M0 0 C3.77150209 0.38682073 6.84281601 1.28941882 10.25 2.875 C16.27963164 5.65944783 22.4944333 7.39319437 28.93359375 8.96875 C29.61534668 9.13955078 30.29709961 9.31035156 30.99951172 9.48632812 C32.35896314 9.82482349 33.72130442 10.15194621 35.08642578 10.46679688 C36.97265625 10.9375 36.97265625 10.9375 40 12 C40.495 13.485 40.495 13.485 41 15 C33.38411465 14.45195862 26.5710947 12.08068674 19.375 9.625 C18.17359375 9.22539062 16.9721875 8.82578125 15.734375 8.4140625 C10.27296651 6.57341042 5.12061296 4.66800305 0 2 C0 1.34 0 0.68 0 0 Z " fill="#4B8447" transform="translate(135,428)"/>
<path d="M0 0 C9.39440913 4.44180101 17.24291307 10.80311578 24.72265625 17.8984375 C27.01188708 20.12104408 27.01188708 20.12104408 30 22 C30 23.32 30 24.64 30 26 C29.34 25.67 28.68 25.34 28 25 C28 24.34 28 23.68 28 23 C26.20856793 22.0204042 24.41684696 21.0413367 22.625 20.0625 C21.62726563 19.51722656 20.62953125 18.97195312 19.6015625 18.41015625 C18.07929654 17.5850241 16.54871217 16.77435609 15 16 C14.67 15.01 14.34 14.02 14 13 C13.01 12.525625 12.02 12.05125 11 11.5625 C8 10 8 10 7.125 7.8125 C7.08375 7.214375 7.0425 6.61625 7 6 C5.68 5.67 4.36 5.34 3 5 C3 4.34 3 3.68 3 3 C2.34 3 1.68 3 1 3 C0.67 2.01 0.34 1.02 0 0 Z " fill="#B63D13" transform="translate(341,52)"/>
<path d="M0 0 C3.68346117 0.60034993 6.64821252 1.6316214 9.984375 3.29296875 C10.92023438 3.75896484 11.85609375 4.22496094 12.8203125 4.70507812 C13.78710938 5.19427734 14.75390625 5.68347656 15.75 6.1875 C16.70132812 6.65736328 17.65265625 7.12722656 18.6328125 7.61132812 C24.68595431 10.65033699 30.60955798 13.86849889 36 18 C36 18.33 36 18.66 36 19 C32.75 19.25 32.75 19.25 29 19 C27.62150897 17.71340837 26.29470975 16.37086915 25 15 C22.83426001 13.91713001 20.62162425 13.00902779 18.38671875 12.078125 C15.27552521 10.67274134 12.48321565 8.91329021 9.62890625 7.05078125 C7.97579167 5.94245974 7.97579167 5.94245974 6 5 C6 4.34 6 3.68 6 3 C4.02 2.34 2.04 1.68 0 1 C0 0.67 0 0.34 0 0 Z " fill="#7D290E" transform="translate(305,33)"/>
<path d="M0 0 C0.99 0.33 1.98 0.66 3 1 C1.625 3 1.625 3 0 5 C-0.66 5 -1.32 5 -2 5 C-2 5.66 -2 6.32 -2 7 C-3.62176696 8.71038811 -5.29879041 10.3686075 -7 12 C-7.94499018 12.96133384 -8.88637973 13.92621975 -9.82421875 14.89453125 C-10.7786209 15.86721196 -11.73304812 16.83986808 -12.6875 17.8125 C-13.17283203 18.31458984 -13.65816406 18.81667969 -14.15820312 19.33398438 C-15.40124606 20.59417273 -16.69699892 21.80191044 -18 23 C-18.66 23 -19.32 23 -20 23 C-20 23.66 -20 24.32 -20 25 C-20.66 24.67 -21.32 24.34 -22 24 C-19.4591998 19.10660703 -17.39243866 16.41634118 -13 13 C-13 12.01 -13 11.02 -13 10 C-12.01 10 -11.02 10 -10 10 C-10 9.34 -10 8.68 -10 8 C-9.01 8 -8.02 8 -7 8 C-7 7.34 -7 6.68 -7 6 C-5.68 5.67 -4.36 5.34 -3 5 C-3 4.01 -3 3.02 -3 2 C-2.01 1.34 -1.02 0.68 0 0 Z " fill="#A63211" transform="translate(357,87)"/>
<path d="M0 0 C2.97 0.495 2.97 0.495 6 1 C-1.11813939 6.87944356 -16.6790676 14 -26 14 C-26 12.35 -26 10.7 -26 9 C-23 8 -23 8 -19.5625 8.0625 C-16.13662486 8.00239693 -14.86038205 7.63450403 -12 6 C-11.01 6 -10.02 6 -9 6 C-8.67 5.01 -8.34 4.02 -8 3 C-5.03 3 -2.06 3 1 3 C0.67 2.01 0.34 1.02 0 0 Z " fill="#4C8347" transform="translate(314,425)"/>
<path d="M0 0 C2.46278801 1.231394 3.42497687 2.78064923 5 5 C4.34 5.66 3.68 6.32 3 7 C0.875 6.625 0.875 6.625 -1 6 C-1.66 7.98 -2.32 9.96 -3 12 C-4.11375 11.814375 -5.2275 11.62875 -6.375 11.4375 C-9.82568861 10.68319343 -9.82568861 10.68319343 -12 12 C-12.66 11.34 -13.32 10.68 -14 10 C-9.57557408 6.28919117 -4.82596069 3.15422267 0 0 Z " fill="#4C974E" transform="translate(297,337)"/>
<path d="M0 0 C0.99 0.33 1.98 0.66 3 1 C-3.09759678 6.0398504 -9.23807398 11.02356002 -15.4375 15.9375 C-16.02805176 16.40969971 -16.61860352 16.88189941 -17.22705078 17.3684082 C-20.0312961 19.58091363 -22.70705867 21.58411614 -26 23 C-24.25 18.125 -24.25 18.125 -22 17 C-21.773125 16.360625 -21.54625 15.72125 -21.3125 15.0625 C-19.28834283 11.88168159 -16.55284189 11.85758253 -13 11 C-10.69712207 10.30859649 -10.69712207 10.30859649 -9 9 C-7.71745356 6.46229997 -7.71745356 6.46229997 -7 4 C-6.01 4 -5.02 4 -4 4 C-4 3.34 -4 2.68 -4 2 C-2.68 2 -1.36 2 0 2 C0 1.34 0 0.68 0 0 Z " fill="#CDC62B" transform="translate(85,287)"/>
<path d="M0 0 C6.94989552 -0.51480708 11.69234563 1.21029141 18 4 C18.99 4.33 19.98 4.66 21 5 C21 5.99 21 6.98 21 8 C23.97 8.495 23.97 8.495 27 9 C27 9.99 27 10.98 27 12 C27.99 12.33 28.98 12.66 30 13 C29.01 13.495 29.01 13.495 28 14 C25.66520787 12.85827759 23.44007104 11.66266416 21.1875 10.375 C14.31477576 6.56100188 7.42787684 3.60539356 0 1 C0 0.67 0 0.34 0 0 Z " fill="#C24016" transform="translate(261,110)"/>
<path d="M0 0 C3.34905115 0.62340828 5.50749404 1.84963056 8.2578125 3.8359375 C9.04800781 4.40570313 9.83820312 4.97546875 10.65234375 5.5625 C11.46832031 6.160625 12.28429687 6.75875 13.125 7.375 C14.36056641 8.26058594 14.36056641 8.26058594 15.62109375 9.1640625 C21.74069114 13.61103671 21.74069114 13.61103671 24 17 C15.45 13.675 15.45 13.675 13 10 C10.94074861 9.27617533 10.94074861 9.27617533 9 9 C9 8.01 9 7.02 9 6 C4.57394994 4.55475116 4.57394994 4.55475116 0 4 C0.34786708 5.97536745 0.34786708 5.97536745 1 8 C1.66 8.33 2.32 8.66 3 9 C1.35 9.33 -0.3 9.66 -2 10 C-2 9.01 -2 8.02 -2 7 C-2.66 7 -3.32 7 -4 7 C-3.67 5.68 -3.34 4.36 -3 3 C-2.01 3 -1.02 3 0 3 C0 2.01 0 1.02 0 0 Z " fill="#FEAC17" transform="translate(33,134)"/>
<path d="M0 0 C0 5.02122061 -4.20602812 7.6778077 -7.57617188 11.08398438 C-8.08720459 11.59276123 -8.5982373 12.10153809 -9.12475586 12.62573242 C-10.67836753 14.17837324 -12.20946141 15.75105011 -13.74023438 17.32617188 C-14.72525795 18.31640356 -15.71154635 19.30537902 -16.69921875 20.29296875 C-17.59471436 21.1955542 -18.49020996 22.09813965 -19.4128418 23.02807617 C-22 25 -22 25 -24.70507812 25.3762207 C-27.5489018 24.91001514 -28.72866703 23.96125456 -30.8125 22 C-31.41707031 21.443125 -32.02164062 20.88625 -32.64453125 20.3125 C-33.31548828 19.6628125 -33.31548828 19.6628125 -34 19 C-32.1875 18.375 -32.1875 18.375 -30 18 C-29.01 18.66 -28.02 19.32 -27 20 C-27 20.66 -27 21.32 -27 22 C-21.70254592 21.59068203 -19.48499254 20.08638119 -15.8203125 16.30859375 C-15.36268524 15.84389175 -14.90505798 15.37918976 -14.43356323 14.90040588 C-12.98513885 13.4241564 -11.55514264 11.9314453 -10.125 10.4375 C-9.14179481 9.42919652 -8.1574306 8.42202184 -7.171875 7.41601562 C-4.76961496 4.95487667 -2.37979454 2.48283654 0 0 Z " fill="#5A0E03" transform="translate(334,112)"/>
<path d="M0 0 C2.18284504 2.65737657 3.27633685 4.65569263 4 8 C4.58007812 7.57847656 5.16015625 7.15695312 5.7578125 6.72265625 C13.51669596 1.28119508 13.51669596 1.28119508 19 1 C16.04942485 6.19301227 13.53612121 8.61374086 8 11 C4.5625 10.75 4.5625 10.75 2 10 C1.01 7.03 0.02 4.06 -1 1 C-0.67 0.67 -0.34 0.34 0 0 Z " fill="#DBC52A" transform="translate(28,319)"/>
<path d="M0 0 C0.33 0 0.66 0 1 0 C1 1.65 1 3.3 1 5 C0.01 5.33 -0.98 5.66 -2 6 C-2.71247732 7.6476038 -3.37400383 9.31763529 -4 11 C-5.5 13.3125 -5.5 13.3125 -7 15 C-7.66 15 -8.32 15 -9 15 C-9.226875 15.53625 -9.45375 16.0725 -9.6875 16.625 C-11.43382056 19.78500863 -13.6402849 22.2676983 -16 25 C-17.32 24.67 -18.64 24.34 -20 24 C-19.04882866 22.8274869 -18.08882991 21.66212985 -17.125 20.5 C-16.59132813 19.8503125 -16.05765625 19.200625 -15.5078125 18.53125 C-15.01023437 18.0259375 -14.51265625 17.520625 -14 17 C-13.34 17 -12.68 17 -12 17 C-11.77441406 16.47921875 -11.54882812 15.9584375 -11.31640625 15.421875 C-9.51808185 12.11338501 -7.24095377 9.21484148 -4.9375 6.25 C-4.47794922 5.64800781 -4.01839844 5.04601562 -3.54492188 4.42578125 C-2.38977365 2.92968619 -1.19794972 1.46204799 0 0 Z " fill="#205484" transform="translate(330,303)"/>
<path d="M0 0 C0.33 0 0.66 0 1 0 C1.02685938 2.14576637 1.04633088 4.29162645 1.0625 6.4375 C1.07410156 7.63246094 1.08570313 8.82742187 1.09765625 10.05859375 C1 13 1 13 0 14 C-0.3911143 17.06474718 -0.7184511 20.11205659 -1 23.1875 C-1.08685059 24.11264404 -1.17370117 25.03778809 -1.26318359 25.9909668 C-2.18688616 36.31026685 -2.63130493 46.64806171 -3 57 C-3.33 57 -3.66 57 -4 57 C-4.94420671 18.16163049 -4.94420671 18.16163049 0 0 Z " fill="#6D5213" transform="translate(12,189)"/>
<path d="M0 0 C-2.82561065 2.82561065 -6.19157372 3.47666013 -9.9375 4.5625 C-10.69861084 4.78574951 -11.45972168 5.00899902 -12.24389648 5.23901367 C-18.13483662 6.90017788 -23.8655314 7.85425669 -30 8 C-30 8.66 -30 9.32 -30 10 C-37.625 12.125 -37.625 12.125 -41 11 C-32.01632713 7.65269039 -23.02023842 4.58699739 -13.75 2.125 C-12.95295654 1.91012939 -12.15591309 1.69525879 -11.3347168 1.47387695 C-7.4742446 0.47652308 -4.02381273 -0.27361927 0 0 Z " fill="#913217" transform="translate(184,21)"/>
<path d="M0 0 C-4.59918884 2.05495672 -9.14957985 3.73624024 -13.984375 5.15625 C-16.08376164 5.86853286 -16.08376164 5.86853286 -17.44140625 7.58203125 C-19.66268049 9.60288977 -21.24455847 9.30216006 -24.1875 9.1875 C-25.08855469 9.16042969 -25.98960937 9.13335937 -26.91796875 9.10546875 C-27.60503906 9.07066406 -28.29210937 9.03585938 -29 9 C-24.37114882 4.1456747 -19.43756965 3.6546681 -13 3 C-13 2.34 -13 1.68 -13 1 C-11.20994059 0.63779734 -9.41787943 0.28547531 -7.625 -0.0625 C-6.12839844 -0.35833984 -6.12839844 -0.35833984 -4.6015625 -0.66015625 C-2 -1 -2 -1 0 0 Z " fill="#E14612" transform="translate(167,28)"/>
<path d="M0 0 C7.24837274 0.55418384 13.65489417 2.69209553 20.5 5.0625 C22.16289062 5.62807617 22.16289062 5.62807617 23.859375 6.20507812 C26.57532929 7.12990739 29.28868081 8.06168716 32 9 C28.78782235 10.07072588 28.01196921 9.94578406 24.875 9.125 C21.6222161 8.32374328 18.52663521 7.82190389 15.1875 7.5625 C11.68779951 7.21987198 9.47416841 6.68931349 7 4 C7 3.34 7 2.68 7 2 C4.69 1.67 2.38 1.34 0 1 C0 0.67 0 0.34 0 0 Z " fill="#942F0E" transform="translate(273,23)"/>
<path d="M0 0 C5.02147352 1.29374209 7.55880663 3.15617641 11.0625 6.9375 C14.1945401 10.29714491 17.00228222 12.74399803 21 15 C21.680625 15.804375 21.680625 15.804375 22.375 16.625 C24.93799788 18.79369051 27.74577037 18.6929972 31 19 C29.35 20.98 27.7 22.96 26 25 C25.34 24.67 24.68 24.34 24 24 C24 23.01 24 22.02 24 21 C21.66787192 17.92255263 18.79805715 15.47883429 15.5 13.5 C12.67033519 11.80220112 10.75254305 9.7855153 8.484375 7.41796875 C6.53765164 5.55833565 4.31688557 4.35151658 2 3 C1.34 2.01 0.68 1.02 0 0 Z " fill="#226F87" transform="translate(342,370)"/>
<path d="M0 0 C0 4.01857416 -1.97494885 6.12829436 -4.25 9.25 C-7.42997033 13.71463113 -10.41316585 18.16374484 -13 23 C-14.46726798 19.18510326 -13.43336419 16.70988378 -12 13 C-11.34 13 -10.68 13 -10 13 C-10 11.68 -10 10.36 -10 9 C-9.01 9 -8.02 9 -7 9 C-6.773125 8.2575 -6.54625 7.515 -6.3125 6.75 C-4.75592468 3.48860409 -2.91481146 2.07105025 0 0 Z " fill="#A33513" transform="translate(123,153)"/>
<path d="M0 0 C2.16942298 3.25413448 2.58271059 4.22380687 2 8 C0.1015625 10.23828125 0.1015625 10.23828125 -2.375 12.3125 C-3.18710938 13.00988281 -3.99921875 13.70726562 -4.8359375 14.42578125 C-7 16 -7 16 -9 16 C-9.309375 16.8353125 -9.309375 16.8353125 -9.625 17.6875 C-11.62143247 21.04513643 -13.78478875 22.74935212 -17 25 C-19.1953125 24.63671875 -19.1953125 24.63671875 -21 24 C-15.71196404 19.15137104 -10.17274709 14.84808951 -4.3203125 10.69921875 C-1.95861005 9.06041451 -1.95861005 9.06041451 0 7 C0.16677282 3.41656024 0.16677282 3.41656024 0 0 Z " fill="#70A22D" transform="translate(101,270)"/>
<path d="M0 0 C0 0.33 0 0.66 0 1 C-13.6332574 4.25968109 -13.6332574 4.25968109 -20 5 C-20 5.99 -20 6.98 -20 8 C-24.455 9.485 -24.455 9.485 -29 11 C-29 9.68 -29 8.36 -29 7 C-27.23141309 6.32739649 -25.46003984 5.66211605 -23.6875 5 C-22.70136719 4.62875 -21.71523437 4.2575 -20.69921875 3.875 C-18 3 -18 3 -15 3 C-15 2.34 -15 1.68 -15 1 C-9.92928099 0.28832014 -5.11791642 -0.10662326 0 0 Z " fill="#CF3C11" transform="translate(201,105)"/>
<path d="M0 0 C0.556875 0.28875 1.11375 0.5775 1.6875 0.875 C4.08494645 2.0413253 6.51596939 3.0339881 9 4 C9 4.99 9 5.98 9 7 C9.99 7 10.98 7 12 7 C12 7.66 12 8.32 12 9 C12.556875 9.185625 13.11375 9.37125 13.6875 9.5625 C17.06754192 11.66360714 18.85140381 14.70665994 21 18 C18.22684456 16.71077573 15.97558476 15.30481175 13.65234375 13.3203125 C13.04712891 12.80339844 12.44191406 12.28648437 11.81835938 11.75390625 C10.88733398 10.94759766 10.88733398 10.94759766 9.9375 10.125 C9.31294922 9.59519531 8.68839844 9.06539063 8.04492188 8.51953125 C4.98419593 5.88671896 2.24175848 3.39958979 0 0 Z " fill="#2884A5" transform="translate(312,344)"/>
<path d="M0 0 C1.38755913 3.73684218 0.58167193 5.94635298 -0.80078125 9.60546875 C-1.20103516 10.67087891 -1.60128906 11.73628906 -2.01367188 12.83398438 C-2.44228516 13.94064453 -2.87089844 15.04730469 -3.3125 16.1875 C-3.72951172 17.30576172 -4.14652344 18.42402344 -4.57617188 19.57617188 C-7.73205498 27.86602749 -7.73205498 27.86602749 -10 29 C-8.98370765 16.72425814 -8.98370765 16.72425814 -5.56640625 13.75390625 C-3.40903002 11.33829047 -2.77203391 8.88962599 -1.8125 5.8125 C-1.29623047 4.18248047 -1.29623047 4.18248047 -0.76953125 2.51953125 C-0.51558594 1.68808594 -0.26164062 0.85664063 0 0 Z " fill="#174471" transform="translate(430,294)"/>
<path d="M0 0 C0.66 0.33 1.32 0.66 2 1 C2.484375 3.87109375 2.484375 3.87109375 2.75 7.4375 C2.84796875 8.61183594 2.9459375 9.78617187 3.046875 10.99609375 C3 14 3 14 1 16 C0.32471777 14.42032193 -0.33989694 12.83608097 -1 11.25 C-1.37125 10.36828125 -1.7425 9.4865625 -2.125 8.578125 C-3 6 -3 6 -3 2 C-2.01 2 -1.02 2 0 2 C0 1.34 0 0.68 0 0 Z " fill="#B68F26" transform="translate(22,297)"/>
<path d="M0 0 C4.67105792 1.55701931 8.08705685 4.08447373 12 7 C12.33 5.68 12.66 4.36 13 3 C13.99 3 14.98 3 16 3 C16.33 2.34 16.66 1.68 17 1 C16.19534869 4.73654172 14.82425115 8.19422782 13.4375 11.75 C12.98246094 12.92046875 12.52742188 14.0909375 12.05859375 15.296875 C11.70925781 16.18890625 11.35992187 17.0809375 11 18 C10.67 18 10.34 18 10 18 C10 16.02 10 14.04 10 12 C10.66 12 11.32 12 12 12 C10.68764216 8.06292649 8.81724026 7.21448815 5.4375 4.875 C3.61034988 3.60414145 1.79356075 2.31783871 0 1 C0 0.67 0 0.34 0 0 Z " fill="#B04D0B" transform="translate(92,175)"/>
<path d="M0 0 C2.31 0 4.62 0 7 0 C6.34 1.98 5.68 3.96 5 6 C6.32 6.33 7.64 6.66 9 7 C9 9.31 9 11.62 9 14 C8.34 14 7.68 14 7 14 C5.2734375 11.4453125 5.2734375 11.4453125 3.375 8.125 C2.74335937 7.03445313 2.11171875 5.94390625 1.4609375 4.8203125 C0 2 0 2 0 0 Z " fill="#589A4D" transform="translate(31,329)"/>
<path d="M0 0 C1 3 1 3 0.28735352 4.90112305 C-0.28607788 5.94586792 -0.28607788 5.94586792 -0.87109375 7.01171875 C-1.28037109 7.76904297 -1.68964844 8.52636719 -2.11132812 9.30664062 C-2.54896484 10.09232422 -2.98660156 10.87800781 -3.4375 11.6875 C-4.0881543 12.88342773 -4.0881543 12.88342773 -4.75195312 14.10351562 C-5.82574763 16.07410554 -6.90864182 18.03909927 -8 20 C-8.33 20 -8.66 20 -9 20 C-8.91231752 18.4156683 -8.80412671 16.83246433 -8.6875 15.25 C-8.60048828 13.92742187 -8.60048828 13.92742187 -8.51171875 12.578125 C-7.9358819 9.67696226 -6.92403852 8.20774393 -5 6 C-4.34 6.33 -3.68 6.66 -3 7 C-3 6.01 -3 5.02 -3 4 C-2.34 4 -1.68 4 -1 4 C-0.67 2.68 -0.34 1.36 0 0 Z " fill="#1C5186" transform="translate(419,323)"/>
<path d="M0 0 C5.0804788 1.61064103 8.88560057 4.68202647 13.0625 7.875 C14.12307617 8.66970703 14.12307617 8.66970703 15.20507812 9.48046875 C18.70615203 12.13010778 21.99981834 14.77383064 25 18 C20.33138019 16.39516194 15.90741833 14.02509806 12 11 C12 10.34 12 9.68 12 9 C9.525 8.01 9.525 8.01 7 7 C7 6.34 7 5.68 7 5 C6.401875 4.9175 5.80375 4.835 5.1875 4.75 C2.4033704 3.79544128 1.56688858 2.42867729 0 0 Z " fill="#FEA817" transform="translate(57,151)"/>
<path d="M0 0 C4.12764916 1.81366403 7.62059205 4.49146618 11.25 7.125 C11.8996875 7.59292969 12.549375 8.06085938 13.21875 8.54296875 C14.81435483 9.69274282 16.40743025 10.84602566 18 12 C17.67 12.99 17.34 13.98 17 15 C16.67 14.01 16.34 13.02 16 12 C13.99939943 11.08478813 13.99939943 11.08478813 11.625 10.5 C8.2633129 9.58018985 6.19616148 8.77708161 4 6 C4 5.34 4 4.68 4 4 C2.68 3.34 1.36 2.68 0 2 C0 1.34 0 0.68 0 0 Z " fill="#FCA81E" transform="translate(86,172)"/>
<path d="M0 0 C1.21237671 3.63713013 0.63552691 5.09726971 -0.375 8.75 C-1.30828148 12.2110932 -2.13915447 15.49000348 -2.4375 19.0625 C-3 22 -3 22 -5.0625 23.9375 C-5.701875 24.288125 -6.34125 24.63875 -7 25 C-6.38574623 19.2073537 -4.84466956 14.05390934 -2.9375 8.5625 C-2.65583984 7.73556641 -2.37417969 6.90863281 -2.08398438 6.05664062 C-1.39482208 4.03587662 -0.6981769 2.01766718 0 0 Z " fill="#785C15" transform="translate(22,155)"/>
<path d="M0 0 C1.65 0 3.3 0 5 0 C1.61171748 2.64553094 -1.97116144 4.93239652 -5.625 7.1875 C-6.50285156 7.73954102 -6.50285156 7.73954102 -7.3984375 8.30273438 C-11.76210285 11 -11.76210285 11 -14 11 C-14 10.01 -14 9.02 -14 8 C-13.34 8 -12.68 8 -12 8 C-11.67 7.01 -11.34 6.02 -11 5 C-9.68 5 -8.36 5 -7 5 C-7 4.34 -7 3.68 -7 3 C-3.535 2.505 -3.535 2.505 0 2 C0 1.34 0 0.68 0 0 Z " fill="#A23616" transform="translate(166,116)"/>
<path d="M0 0 C5.40839975 3.16589254 9.04174791 7.17514834 13 12 C12.01 12.66 11.02 13.32 10 14 C10.66 14.33 11.32 14.66 12 15 C10.68 14.67 9.36 14.34 8 14 C8 13.01 8 12.02 8 11 C7.34 10.67 6.68 10.34 6 10 C6 9.34 6 8.68 6 8 C5.38125 7.79375 4.7625 7.5875 4.125 7.375 C1.15346355 5.45224112 0.86975341 3.33405473 0 0 Z " fill="#498A4D" transform="translate(120,310)"/>
<path d="M0 0 C-7.10213908 4.73475939 -13.88113993 4.10440376 -22 3 C-22 2.67 -22 2.34 -22 2 C-19.27261765 1.46775449 -16.54379566 0.94892004 -13.8125 0.4375 C-13.04357422 0.28603516 -12.27464844 0.13457031 -11.48242188 -0.02148438 C-7.363181 -0.78168763 -4.10534631 -1.24229918 0 0 Z " fill="#4D894B" transform="translate(259,358)"/>
<path d="M0 0 C0 0.33 0 0.66 0 1 C-3.20800907 1.64745092 -6.41646339 2.29266893 -9.625 2.9375 C-10.98044922 3.21110352 -10.98044922 3.21110352 -12.36328125 3.49023438 C-16.89899238 4.40068734 -21.42937647 5.2787222 -26 6 C-26 5.34 -26 4.68 -26 4 C-17.01743708 1.02352945 -9.49378254 -0.62596368 0 0 Z " fill="#903116" transform="translate(207,106)"/>
<path d="M0 0 C0.99 0 1.98 0 3 0 C3 0.66 3 1.32 3 2 C3.804375 2.0825 4.60875 2.165 5.4375 2.25 C11.29192816 3.48251119 16.92676386 5.47418207 21 10 C17.75 10.25 17.75 10.25 14 10 C12.62150897 8.71340837 11.29470975 7.37086915 10 6 C7.67924634 4.85810705 5.33004478 3.881949 2.92578125 2.9296875 C1 2 1 2 0 0 Z " fill="#B83C16" transform="translate(320,42)"/>
<path d="M0 0 C-3.49359465 3.59634744 -7.11098131 6.83451967 -11 10 C-11 8.02 -11 6.04 -11 4 C-10.360625 3.896875 -9.72125 3.79375 -9.0625 3.6875 C-8.381875 3.460625 -7.70125 3.23375 -7 3 C-6.67 2.01 -6.34 1.02 -6 0 C-3 -1 -3 -1 0 0 Z " fill="#1C5896" transform="translate(384,379)"/>
<path d="M0 0 C2.79799985 1.09921423 4.03550018 2.04466152 5.9375 4.4375 C7.83456212 7.09646583 7.83456212 7.09646583 10.5 8.5 C13.41419152 10.24851491 15.0106958 12.27391646 17 15 C12.52799612 13.78036258 10.09855847 12.43054688 7 9 C6.34 8.67 5.68 8.34 5 8 C5 7.34 5 6.68 5 6 C4.01 5.67 3.02 5.34 2 5 C0.8125 2.4375 0.8125 2.4375 0 0 Z " fill="#45A775" transform="translate(338,367)"/>
<path d="M0 0 C2.31 0 4.62 0 7 0 C7 0.66 7 1.32 7 2 C3.4952128 4.60821373 0.10118947 6.51901491 -4 8 C-4.99 8.495 -4.99 8.495 -6 9 C-6 7.68 -6 6.36 -6 5 C-5.38125 4.9175 -4.7625 4.835 -4.125 4.75 C-1.81562433 4.18741541 -1.81562433 4.18741541 -0.75 1.9375 C-0.5025 1.298125 -0.255 0.65875 0 0 Z " fill="#ECC517" transform="translate(44,315)"/>
<path d="M0 0 C4.787362 4.787362 4.125 15.36033704 4.125 21.875 C4.09404508 23.25028285 4.05700482 24.62555045 4 26 C3.67 26 3.34 26 3 26 C3 23.03 3 20.06 3 17 C2.34 17 1.68 17 1 17 C0.1679418 11.27959989 -0.12036664 5.77759884 0 0 Z " fill="#1E466D" transform="translate(435,191)"/>
<path d="M0 0 C-0.42410156 0.4125 -0.84820312 0.825 -1.28515625 1.25 C-5.75238723 5.64850435 -9.9278528 10.23472137 -14 15 C-14 14.01 -14 13.02 -14 12 C-13.360625 11.38125 -12.72125 10.7625 -12.0625 10.125 C-9.66811941 7.65806242 -9.59170015 6.2966151 -9 3 C-6.35152737 -0.37078335 -4.20958409 -1.4031947 0 0 Z " fill="#8F2D11" transform="translate(139,138)"/>
<path d="M0 0 C0.99 0.66 1.98 1.32 3 2 C1.38989473 6.07376031 -1.53822271 8.76507069 -4.625 11.75 C-5.140625 12.25660156 -5.65625 12.76320313 -6.1875 13.28515625 C-7.45383339 14.52803902 -8.7263144 15.76465276 -10 17 C-10.33 16.01 -10.66 15.02 -11 14 C-10.16855469 13.34644531 -10.16855469 13.34644531 -9.3203125 12.6796875 C-4.97842924 9.11038134 -2.22244271 6.70473263 -1 1 C-0.67 0.67 -0.34 0.34 0 0 Z " fill="#E84511" transform="translate(333,107)"/>
<path d="M0 0 C0.33 0 0.66 0 1 0 C1.13277344 0.90363281 1.26554688 1.80726563 1.40234375 2.73828125 C1.66724609 4.50751953 1.66724609 4.50751953 1.9375 6.3125 C2.11152344 7.48425781 2.28554687 8.65601563 2.46484375 9.86328125 C2.92093031 13.01641403 2.92093031 13.01641403 4 16 C4.06937062 18.22818441 4.08457084 20.45834524 4.0625 22.6875 C4.05347656 23.86699219 4.04445313 25.04648437 4.03515625 26.26171875 C4.02355469 27.16535156 4.01195312 28.06898438 4 29 C3.67 29 3.34 29 3 29 C-0.57446809 9.65957447 -0.57446809 9.65957447 0 0 Z " fill="#785F15" transform="translate(9,248)"/>
<path d="M0 0 C-6.82417465 4.85216981 -12.59975233 8.10713203 -21 9 C-18.22232142 5.59103084 -14.39776595 4.05410881 -10.5 2.25 C-9.48486328 1.75693359 -9.48486328 1.75693359 -8.44921875 1.25390625 C-3.36634083 -1.12211361 -3.36634083 -1.12211361 0 0 Z " fill="#78280F" transform="translate(143,34)"/>
<path d="M0 0 C5.75 0.875 5.75 0.875 8 2 C8 2.99 8 3.98 8 5 C10.31 5.33 12.62 5.66 15 6 C15.33 7.32 15.66 8.64 16 10 C9.8034553 8.53239731 4.93130534 4.88851943 0 1 C0 0.67 0 0.34 0 0 Z " fill="#487D43" transform="translate(103,411)"/>
<path d="M0 0 C-1.07401108 2.91517292 -1.77810176 4.77810176 -4 7 C-3.64644564 9.26274788 -3.02455574 10.95088852 -2 13 C-3.9375 12.1875 -3.9375 12.1875 -6 11 C-6.33 10.01 -6.66 9.02 -7 8 C-8.32 8.33 -9.64 8.66 -11 9 C-9.33333333 7.33333333 -7.66666667 5.66666667 -6 4 C-5.278125 3.236875 -4.55625 2.47375 -3.8125 1.6875 C-2 0 -2 0 0 0 Z " fill="#26627F" transform="translate(310,328)"/>
<path d="M0 0 C0.33 0 0.66 0 1 0 C1.02712325 2.87506421 1.04689851 5.74986908 1.0625 8.625 C1.07087891 9.43324219 1.07925781 10.24148438 1.08789062 11.07421875 C1.1058955 15.50341918 0.89622662 19.63883424 0 24 C-0.33 24 -0.66 24 -1 24 C-0.98839844 22.90300781 -0.97679687 21.80601562 -0.96484375 20.67578125 C-0.95546036 19.22135588 -0.94636075 17.76692865 -0.9375 16.3125 C-0.92912109 15.59126953 -0.92074219 14.87003906 -0.91210938 14.12695312 C-0.8979984 11.0366488 -0.95726918 8.19242137 -1.62890625 5.16796875 C-2 3 -2 3 0 0 Z " fill="#2673BC" transform="translate(436,248)"/>
<path d="M0 0 C5.44567686 1.02862785 10.11817117 2.24614784 15 5 C15 5.66 15 6.32 15 7 C5.11655941 6.38756458 5.11655941 6.38756458 2 3 C2 2.34 2 1.68 2 1 C1.34 0.67 0.68 0.34 0 0 Z " fill="#D8461A" transform="translate(296,31)"/>
<path d="M0 0 C0.28875 0.598125 0.5775 1.19625 0.875 1.8125 C2.04742026 4.19327792 2.04742026 4.19327792 4 7 C5.56448729 12.21495762 6.2260748 16.5742048 6 22 C3.80797954 18.71196932 2.95741384 15.91745739 1.875 12.125 C1.52179687 10.91070312 1.16859375 9.69640625 0.8046875 8.4453125 C0.10646965 5.4558555 -0.1736106 3.04397245 0 0 Z " fill="#83691A" transform="translate(13,277)"/>
<path d="M0 0 C0.66 0 1.32 0 2 0 C0.66666667 7.33333333 -0.66666667 14.66666667 -2 22 C-2.33 22 -2.66 22 -3 22 C-3.36801906 14.06714481 -2.77476512 7.4654395 0 0 Z " fill="#94701E" transform="translate(100,193)"/>
<path d="M0 0 C0.99 0.33 1.98 0.66 3 1 C2.04882866 2.1725131 1.08882991 3.33787015 0.125 4.5 C-0.67550781 5.47453125 -0.67550781 5.47453125 -1.4921875 6.46875 C-1.98976563 6.9740625 -2.48734375 7.479375 -3 8 C-3.66 8 -4.32 8 -5 8 C-5.33 8.99 -5.66 9.98 -6 11 C-8.5625 12.6875 -8.5625 12.6875 -11 14 C-9.42219077 10.28954753 -7.09296752 7.70093616 -4.375 4.75 C-3.55773438 3.85796875 -2.74046875 2.9659375 -1.8984375 2.046875 C-1.27195312 1.37140625 -0.64546875 0.6959375 0 0 Z " fill="#903616" transform="translate(67,84)"/>
<path d="M0 0 C2.64 0.33 5.28 0.66 8 1 C1.79018051 4.46933577 -5.96732541 5.38014457 -13 5 C-9.25474201 1.25474201 -5.01729091 1.31090051 0 1 C0 0.67 0 0.34 0 0 Z " fill="#346430" transform="translate(265,442)"/>
<path d="M0 0 C1.50433594 0.01353516 1.50433594 0.01353516 3.0390625 0.02734375 C3.80992187 0.03894531 4.58078125 0.05054688 5.375 0.0625 C1.21515388 3.96235574 -2.17584591 4.95419747 -7.625 6.0625 C-7.625 4.4125 -7.625 2.7625 -7.625 1.0625 C-4.98041621 -0.25979189 -2.94738699 -0.03427194 0 0 Z " fill="#4C9148" transform="translate(295.625,432.9375)"/>
<path d="M0 0 C0.80179688 0.00451172 1.60359375 0.00902344 2.4296875 0.01367188 C4.41149006 0.02546832 6.39325433 0.04340395 8.375 0.0625 C8.375 0.3925 8.375 0.7225 8.375 1.0625 C1.03758031 3.4104743 -5.96893782 3.25605213 -13.625 3.0625 C-8.89345331 -0.09186446 -5.56486203 -0.05872014 0 0 Z " fill="#E24510" transform="translate(192.625,20.9375)"/>
<path d="M0 0 C0.33 0 0.66 0 1 0 C0.23580786 9.01746725 0.23580786 9.01746725 -3 13 C-3.99 13 -4.98 13 -6 13 C-5.01 10.03 -4.02 7.06 -3 4 C-2.34 4 -1.68 4 -1 4 C-0.67 2.68 -0.34 1.36 0 0 Z " fill="#25639F" transform="translate(345,276)"/>
<path d="M0 0 C0.66 0 1.32 0 2 0 C2.103125 0.639375 2.20625 1.27875 2.3125 1.9375 C2.539375 2.618125 2.76625 3.29875 3 4 C3.99 4.33 4.98 4.66 6 5 C7.25 7.4375 7.25 7.4375 8 10 C7.67 10.66 7.34 11.32 7 12 C4.03 8.7 1.06 5.4 -2 2 C-1.34 1.34 -0.68 0.68 0 0 Z " fill="#508A40" transform="translate(62,372)"/>
<path d="M0 0 C4.85745385 0.59237242 8.66821752 1.79164031 13 4 C13.33 4.99 13.66 5.98 14 7 C8.93001981 6.34580901 4.58009223 4.1453591 0 2 C0 1.34 0 0.68 0 0 Z " fill="#457C43" transform="translate(135,428)"/>
<path d="M0 0 C1.98 0.66 3.96 1.32 6 2 C6 2.66 6 3.32 6 4 C6.85851563 4.39832031 6.85851563 4.39832031 7.734375 4.8046875 C10.1076012 6.05676891 12.12213286 7.4936352 14.25 9.125 C14.95640625 9.66382813 15.6628125 10.20265625 16.390625 10.7578125 C16.92171875 11.16773438 17.4528125 11.57765625 18 12 C13.70068112 12 11.21292546 9.572812 7.875 7.125 C6.90626953 6.43470703 6.90626953 6.43470703 5.91796875 5.73046875 C1.13585283 2.27170567 1.13585283 2.27170567 0 0 Z " fill="#EA5901" transform="translate(47,142)"/>
<path d="M0 0 C0.66 0.33 1.32 0.66 2 1 C-2.61176471 7.09411765 -2.61176471 7.09411765 -6 9 C-7.32 8.67 -8.64 8.34 -10 8 C-6.7 5.36 -3.4 2.72 0 0 Z " fill="#943413" transform="translate(99,56)"/>
<path d="M0 0 C0 3.84308365 -1.30179208 5.41787428 -3.375 8.625 C-4.00148438 9.60726563 -4.62796875 10.58953125 -5.2734375 11.6015625 C-7 14 -7 14 -9 15 C-9 13.68 -9 12.36 -9 11 C-8.34 10.67 -7.68 10.34 -7 10 C-6.34444881 7.47266765 -6.34444881 7.47266765 -6 5 C-5.01 4.67 -4.02 4.34 -3 4 C-1.31461399 2.00334686 -1.31461399 2.00334686 0 0 Z " fill="#134375" transform="translate(409,343)"/>
<path d="M0 0 C3.76119476 0.62393651 6.18960042 2.34773715 9.25 4.5625 C10.14203125 5.20316406 11.0340625 5.84382813 11.953125 6.50390625 C12.96632812 7.24447266 12.96632812 7.24447266 14 8 C12.140625 8.58203125 12.140625 8.58203125 10 9 C7.75 7.6875 7.75 7.6875 6 6 C6 5.34 6 4.68 6 4 C4.02 3.34 2.04 2.68 0 2 C0 1.34 0 0.68 0 0 Z " fill="#3A6B3C" transform="translate(144,334)"/>
<path d="M0 0 C1.98 0.66 3.96 1.32 6 2 C6 2.66 6 3.32 6 4 C6.5775 4.28875 7.155 4.5775 7.75 4.875 C8.4925 5.24625 9.235 5.6175 10 6 C10.721875 6.309375 11.44375 6.61875 12.1875 6.9375 C14 8 14 8 15 11 C10.92584833 9.59790456 8.01720177 7.65552322 4.6875 4.9375 C3.80449219 4.22464844 2.92148438 3.51179687 2.01171875 2.77734375 C1.34785156 2.19082031 0.68398437 1.60429687 0 1 C0 0.67 0 0.34 0 0 Z " fill="#E85500" transform="translate(65,155)"/>
<path d="M0 0 C4.75 0.875 4.75 0.875 7 2 C7 2.66 7 3.32 7 4 C8.65 4 10.3 4 12 4 C11.01 5.485 11.01 5.485 10 7 C5.61308455 6.49381745 3.15608721 3.86917019 0 1 C0 0.67 0 0.34 0 0 Z " fill="#97371A" transform="translate(300,130)"/>
<path d="M0 0 C0.66 0.33 1.32 0.66 2 1 C0.59290434 2.48827426 -0.82606201 3.96533185 -2.25 5.4375 C-3.43335938 6.67306641 -3.43335938 6.67306641 -4.640625 7.93359375 C-6.89505107 9.90808281 -8.02702112 10.85389206 -11 11 C-11.66 10.34 -12.32 9.68 -13 9 C-11.35 8.67 -9.7 8.34 -8 8 C-7.67 7.01 -7.34 6.02 -7 5 C-6.34 5 -5.68 5 -5 5 C-4.67 4.01 -4.34 3.02 -4 2 C-3.67 2.33 -3.34 2.66 -3 3 C-2.01 2.01 -1.02 1.02 0 0 Z " fill="#DD4918" transform="translate(320,124)"/>
<path d="M0 0 C2.46278801 1.231394 3.42497687 2.78064923 5 5 C4.34 5.66 3.68 6.32 3 7 C0.875 6.625 0.875 6.625 -1 6 C-1 5.34 -1 4.68 -1 4 C-1.99 3.67 -2.98 3.34 -4 3 C-2.68 2.01 -1.36 1.02 0 0 Z " fill="#439445" transform="translate(297,337)"/>
<path d="M0 0 C1.32 0 2.64 0 4 0 C4 0.66 4 1.32 4 2 C4.66 2 5.32 2 6 2 C6 2.66 6 3.32 6 4 C7.32 4.33 8.64 4.66 10 5 C10 5.66 10 6.32 10 7 C11.32 7.33 12.64 7.66 14 8 C12.328125 8.7421875 12.328125 8.7421875 10 9 C7.421875 7.3828125 7.421875 7.3828125 4.75 5.125 C3.85796875 4.38507813 2.9659375 3.64515625 2.046875 2.8828125 C1.37140625 2.26148438 0.6959375 1.64015625 0 1 C0 0.67 0 0.34 0 0 Z " fill="#E95700" transform="translate(80,166)"/>
<path d="M0 0 C-2.97 0.66 -5.94 1.32 -9 2 C-9 2.66 -9 3.32 -9 4 C-16.625 6.125 -16.625 6.125 -20 5 C-17.2328864 3.96794141 -14.46208746 2.94909171 -11.6875 1.9375 C-10.90181641 1.64294922 -10.11613281 1.34839844 -9.30664062 1.04492188 C-8.54931641 0.77099609 -7.79199219 0.49707031 -7.01171875 0.21484375 C-6.31522217 -0.04176025 -5.61872559 -0.29836426 -4.90112305 -0.56274414 C-3 -1 -3 -1 0 0 Z " fill="#6E230C" transform="translate(163,27)"/>
<path d="M0 0 C1.46726798 3.81489674 0.43336419 6.29011622 -1 10 C-1.99 10 -2.98 10 -4 10 C-4 10.99 -4 11.98 -4 13 C-4.66 13 -5.32 13 -6 13 C-4.58707905 8.1725201 -2.57025846 4.2837641 0 0 Z " fill="#904418" transform="translate(37,124)"/>
<path d="M0 0 C0.640625 1.76953125 0.640625 1.76953125 1 4 C0.109375 5.88671875 0.109375 5.88671875 -1.25 7.6875 C-1.68828125 8.28949219 -2.1265625 8.89148438 -2.578125 9.51171875 C-4 11 -4 11 -7 12 C-5.44298069 7.32894208 -2.91552627 3.91294315 0 0 Z " fill="#8B3514" transform="translate(48,107)"/>
<path d="M0 0 C0.66 0.33 1.32 0.66 2 1 C-1.27429093 5.33362035 -3.76986166 8.02416996 -9 10 C-9.66 9.67 -10.32 9.34 -11 9 C-7.37 6.03 -3.74 3.06 0 0 Z " fill="#7FA92C" transform="translate(45,320)"/>
<path d="M0 0 C2.30874711 2.16614803 4.05290181 4.39206608 5.75 7.0625 C6.19859375 7.75472656 6.6471875 8.44695312 7.109375 9.16015625 C7.40328125 9.76730469 7.6971875 10.37445313 8 11 C7.67 11.66 7.34 12.32 7 13 C3.1990723 10.6408035 1.67943734 8.11462148 0 4 C0 2.68 0 1.36 0 0 Z " fill="#3E7A43" transform="translate(111,294)"/>
<path d="M0 0 C1.06287862 3.20299909 0.96603992 4.98952451 -0.25 8.125 C-0.50265625 8.80820313 -0.7553125 9.49140625 -1.015625 10.1953125 C-2 12 -2 12 -5 14 C-4.34580901 8.93001981 -2.1453591 4.58009223 0 0 Z " fill="#80691C" transform="translate(28,141)"/>
<path d="M0 0 C-5.14285714 5.57142857 -5.14285714 5.57142857 -9 6 C-7.54266958 1.38512035 -7.54266958 1.38512035 -5.0625 -0.375 C-3 -1 -3 -1 0 0 Z " fill="#C43E0E" transform="translate(47,118)"/>
<path d="M0 0 C7.75 0.875 7.75 0.875 10 2 C10 2.99 10 3.98 10 5 C10.99 5.33 11.98 5.66 13 6 C12.01 6.495 12.01 6.495 11 7 C8.3984375 5.78515625 8.3984375 5.78515625 5.375 4.0625 C4.37210937 3.49660156 3.36921875 2.93070312 2.3359375 2.34765625 C1.56507813 1.90292969 0.79421875 1.45820312 0 1 C0 0.67 0 0.34 0 0 Z " fill="#792A0F" transform="translate(278,117)"/>
<path d="M0 0 C2.88711594 1.34135918 5.29413963 2.84943995 7.75 4.875 C8.36359375 5.36742188 8.9771875 5.85984375 9.609375 6.3671875 C11 8 11 8 11 12 C10.34 11.67 9.68 11.34 9 11 C9 10.34 9 9.68 9 9 C7.88625 8.443125 6.7725 7.88625 5.625 7.3125 C2.84702448 5.74673198 2.09463724 5.18104516 0.5625 2.25 C0.376875 1.5075 0.19125 0.765 0 0 Z " fill="#78260F" transform="translate(360,66)"/>
<path d="M0 0 C-3.75 3 -3.75 3 -6 3 C-6.66 4.65 -7.32 6.3 -8 8 C-9.65 8 -11.3 8 -13 8 C-4.87776708 -2.43888354 -4.87776708 -2.43888354 0 0 Z " fill="#E7450C" transform="translate(108,55)"/>
<path d="M0 0 C1.32 0 2.64 0 4 0 C4 0.66 4 1.32 4 2 C2.4188708 2.50692692 0.83498617 3.00526443 -0.75 3.5 C-1.63171875 3.7784375 -2.5134375 4.056875 -3.421875 4.34375 C-6 5 -6 5 -10 5 C-10 4.34 -10 3.68 -10 3 C-6.52674819 1.8422494 -3.63932552 1.93133348 0 2 C0 1.34 0 0.68 0 0 Z " fill="#416A37" transform="translate(283,438)"/>
<path d="M0 0 C3.79303725 1.00193437 6.71536341 1.81024227 10 4 C10.6875 6.125 10.6875 6.125 11 8 C6.99698968 6.23867546 3.3971023 3.73867517 0 1 C0 0.67 0 0.34 0 0 Z " fill="#44743E" transform="translate(89,401)"/>
<path d="M0 0 C3.63515926 1.00976646 4.95669389 1.94643718 7.375 4.9375 C7.91125 5.948125 8.4475 6.95875 9 8 C8.67 8.99 8.34 9.98 8 11 C6.66375099 9.35653302 5.33107149 7.71016314 4 6.0625 C3.2575 5.14597656 2.515 4.22945313 1.75 3.28515625 C0 1 0 1 0 0 Z " fill="#48753C" transform="translate(51,362)"/>
<path d="M0 0 C0.66 0.33 1.32 0.66 2 1 C2.484375 3.87109375 2.484375 3.87109375 2.75 7.4375 C2.84796875 8.61183594 2.9459375 9.78617187 3.046875 10.99609375 C3 14 3 14 1 16 C0.61781233 14.34385343 0.28604898 12.67542976 0 11 C0.33 10.67 0.66 10.34 1 10 C0.56422223 7.93459493 -0.0364702 5.93690575 -0.625 3.91015625 C-1 2 -1 2 0 0 Z " fill="#D4A513" transform="translate(22,297)"/>
<path d="M0 0 C0.66 0.33 1.32 0.66 2 1 C-3.445 5.455 -3.445 5.455 -9 10 C-9.66 9.67 -10.32 9.34 -11 9 C-7.56638098 5.36440339 -4.2026393 2.63886654 0 0 Z " fill="#D3C925" transform="translate(99,277)"/>
<path d="M0 0 C0 3.60573896 -0.81707462 4.41336566 -3 7.1875 C-3.556875 7.90292969 -4.11375 8.61835938 -4.6875 9.35546875 C-5.120625 9.89816406 -5.55375 10.44085938 -6 11 C-6.609375 9.1640625 -6.609375 9.1640625 -7 7 C-4.91882331 3.87823497 -3.13348366 2.08898911 0 0 Z " fill="#842A12" transform="translate(123,153)"/>
<path d="M0 0 C0.99 0.495 0.99 0.495 2 1 C2 1.66 2 2.32 2 3 C4.31 3 6.62 3 9 3 C9.33 3.99 9.66 4.98 10 6 C10.66 6 11.32 6 12 6 C11.67 6.66 11.34 7.32 11 8 C9.02 7.34 7.04 6.68 5 6 C5 5.67 5 5.34 5 5 C3.35 4.67 1.7 4.34 0 4 C0 2.68 0 1.36 0 0 Z " fill="#E64413" transform="translate(332,49)"/>
<path d="M0 0 C0.99 0 1.98 0 3 0 C3 0.66 3 1.32 3 2 C3.969375 2.268125 4.93875 2.53625 5.9375 2.8125 C7.4534375 3.4003125 7.4534375 3.4003125 9 4 C9.33 4.99 9.66 5.98 10 7 C5.94718288 5.77472971 2.55639236 4.30119506 -1 2 C-0.67 1.34 -0.34 0.68 0 0 Z " fill="#40793E" transform="translate(124,422)"/>
<path d="M0 0 C5.98808129 1.31445687 9.03429323 4.61191026 13 9 C10 9 10 9 8.625 7.6875 C8.08875 7.130625 7.5525 6.57375 7 6 C6.154375 5.505 5.30875 5.01 4.4375 4.5 C2 3 2 3 0 0 Z " fill="#28869B" transform="translate(342,370)"/>
<path d="M0 0 C2.99220268 1.36370299 5.29026529 2.94908083 7.75 5.125 C8.67039062 5.93324219 8.67039062 5.93324219 9.609375 6.7578125 C10.06828125 7.16773438 10.5271875 7.57765625 11 8 C10.01 8.33 9.02 8.66 8 9 C7.236875 8.195625 6.47375 7.39125 5.6875 6.5625 C3.20569102 3.83200976 3.20569102 3.83200976 0 3 C0 2.01 0 1.02 0 0 Z " fill="#49AA72" transform="translate(319,352)"/>
<path d="M0 0 C3.7910119 1.44950455 7.3874638 3.15172566 11 5 C10.01 5.66 9.02 6.32 8 7 C8 6.34 8 5.68 8 5 C6.02 5.33 4.04 5.66 2 6 C1.34 4.02 0.68 2.04 0 0 Z " fill="#3F7D40" transform="translate(158,343)"/>
<path d="M0 0 C2.31 0 4.62 0 7 0 C6.34 2.97 5.68 5.94 5 9 C2.67527795 6.14693203 1.2491742 3.45925163 0 0 Z " fill="#598943" transform="translate(31,329)"/>
<path d="M0 0 C0.33 1.32 0.66 2.64 1 4 C-1.97 6.475 -1.97 6.475 -5 9 C-5.3125 6.75 -5.3125 6.75 -5 4 C-2.5 1.6875 -2.5 1.6875 0 0 Z " fill="#E34317" transform="translate(129,142)"/>
<path d="M0 0 C0.33 0.66 0.66 1.32 1 2 C-1.64 4.31 -4.28 6.62 -7 9 C-7.33 8.01 -7.66 7.02 -8 6 C-3.375 1.125 -3.375 1.125 0 0 Z " fill="#A03514" transform="translate(368,78)"/>
<path d="M0 0 C1.32 0.33 2.64 0.66 4 1 C3.071875 1.3403125 3.071875 1.3403125 2.125 1.6875 C-0.22720631 2.84931972 -0.22720631 2.84931972 -1 5.5 C-2 8 -2 8 -4.125 9.3125 C-5.053125 9.6528125 -5.053125 9.6528125 -6 10 C-4.25 5.125 -4.25 5.125 -2 4 C-0.86649466 1.98330173 -0.86649466 1.98330173 0 0 Z " fill="#E4C51B" transform="translate(65,300)"/>
<path d="M0 0 C0 3.96130371 -1.34877125 4.82914401 -4 7.6875 C-4.7425 8.49574219 -5.485 9.30398437 -6.25 10.13671875 C-6.8275 10.75160156 -7.405 11.36648437 -8 12 C-8.66 11.67 -9.32 11.34 -10 11 C-7.00793014 6.55463907 -4.41309542 3.15221101 0 0 Z " fill="#ED4007" transform="translate(67,88)"/>
<path d="M0 0 C0.66 1.32 1.32 2.64 2 4 C0.8125 5.5 0.8125 5.5 -1 7 C-3.6875 7.1875 -3.6875 7.1875 -6 7 C-4.02 4.69 -2.04 2.38 0 0 Z " fill="#A93A12" transform="translate(74,77)"/>
<path d="M0 0 C0 0.66 0 1.32 0 2 C-0.66 2 -1.32 2 -2 2 C-2.433125 2.928125 -2.433125 2.928125 -2.875 3.875 C-4 6 -4 6 -6 8 C-8.32275177 8.40047444 -10.65739357 8.7397104 -13 9 C-12.67 8.34 -12.34 7.68 -12 7 C-11.030625 6.71125 -10.06125 6.4225 -9.0625 6.125 C-5.90453298 5.32642679 -5.90453298 5.32642679 -4.75 2.9375 C-4.37875 1.9784375 -4.37875 1.9784375 -4 1 C-2 0 -2 0 0 0 Z " fill="#E94411" transform="translate(121,45)"/>
<path d="M0 0 C0.66 0.33 1.32 0.66 2 1 C1.67 1.99 1.34 2.98 1 4 C-1.25 5.0625 -1.25 5.0625 -4 6 C-4.928125 6.37125 -5.85625 6.7425 -6.8125 7.125 C-7.534375 7.41375 -8.25625 7.7025 -9 8 C-8.34 7.01 -7.68 6.02 -7 5 C-6.34 5 -5.68 5 -5 5 C-5 4.34 -5 3.68 -5 3 C-2.625 1.3125 -2.625 1.3125 0 0 Z " fill="#7DAB2A" transform="translate(56,312)"/>
<path d="M0 0 C1.98 0 3.96 0 6 0 C6.99 1.98 7.98 3.96 9 6 C5.06326356 4.68775452 2.77280706 3.08089673 0 0 Z " fill="#902E0E" transform="translate(291,124)"/>
<path d="M0 0 C1.7143618 1.95927063 3.38405168 3.95880212 5 6 C3.68 6 2.36 6 1 6 C0.34 5.34 -0.32 4.68 -1 4 C-2.31747324 3.30251417 -3.64914193 2.63040043 -5 2 C-2 0 -2 0 0 0 Z " fill="#4FA86D" transform="translate(303,336)"/>
<path d="M0 0 C2 1 4 2 6 3 C6 3.99 6 4.98 6 6 C6.66 6 7.32 6 8 6 C8.33 6.99 8.66 7.98 9 9 C7.0625 8.1875 7.0625 8.1875 5 7 C4.67 6.01 4.34 5.02 4 4 C1.99983534 2.79117904 1.99983534 2.79117904 0 2 C0 1.34 0 0.68 0 0 Z " fill="#FEB015" transform="translate(86,172)"/>
<path d="M0 0 C2.64 0 5.28 0 8 0 C8.33 0.99 8.66 1.98 9 3 C9.99 3.33 10.98 3.66 12 4 C10 5 10 5 7.6171875 4.22265625 C6.71226562 3.83980469 5.80734375 3.45695312 4.875 3.0625 C3.50988281 2.49208984 3.50988281 2.49208984 2.1171875 1.91015625 C1.41851562 1.60980469 0.71984375 1.30945313 0 1 C0 0.67 0 0.34 0 0 Z " fill="#8F2F13" transform="translate(261,110)"/>
<path d="M0 0 C0 0.66 0 1.32 0 2 C0.61875 2.12375 1.2375 2.2475 1.875 2.375 C4 3 4 3 6 5 C1.61667943 4.17812739 -2.67940177 3.09845718 -7 2 C-4.35261084 0.5393715 -3.10551666 0 0 0 Z " fill="#E84610" transform="translate(259,105)"/>
<path d="M0 0 C-1.36983503 3.16115776 -1.9890638 3.9927092 -5 6 C-7.1875 5.625 -7.1875 5.625 -9 5 C-7.87926138 4.16094435 -6.75325453 3.32892169 -5.625 2.5 C-4.99851562 2.0359375 -4.37203125 1.571875 -3.7265625 1.09375 C-2 0 -2 0 0 0 Z " fill="#873213" transform="translate(110,50)"/>
<path d="M0 0 C-2.52788007 2.79872437 -4.20411134 4.45773019 -8 5 C-7.75 3.125 -7.75 3.125 -7 1 C-4.09342573 -1.03460199 -3.47133392 -1.15711131 0 0 Z " fill="#49783D" transform="translate(339,415)"/>
<path d="M0 0 C1.12894876 0.93274109 2.25300876 1.87140122 3.375 2.8125 C4.00148438 3.33457031 4.62796875 3.85664063 5.2734375 4.39453125 C7 6 7 6 9 9 C8.01 9.66 7.02 10.32 6 11 C5.62875 9.88625 5.62875 9.88625 5.25 8.75 C3.90634806 5.79396573 2.31013315 4.23312872 0 2 C0 1.34 0 0.68 0 0 Z " fill="#4FA07C" transform="translate(359,384)"/>
<path d="M0 0 C0.66 0.33 1.32 0.66 2 1 C2 1.66 2 2.32 2 3 C-0.40545638 4.20272819 -1.94996953 4.10071472 -4.625 4.0625 C-5.85089844 4.04896484 -5.85089844 4.04896484 -7.1015625 4.03515625 C-8.04128906 4.01775391 -8.04128906 4.01775391 -9 4 C-6.04245816 2.5086438 -3.13948098 1.07403297 0 0 Z " fill="#437C43" transform="translate(267,353)"/>
<path d="M0 0 C1.98 1.65 3.96 3.3 6 5 C5.01 5.66 4.02 6.32 3 7 C3.66 7.33 4.32 7.66 5 8 C3.68 7.67 2.36 7.34 1 7 C1 6.01 1 5.02 1 4 C0.34 3.34 -0.32 2.68 -1 2 C-0.67 1.34 -0.34 0.68 0 0 Z " fill="#448444" transform="translate(127,317)"/>
<path d="M0 0 C0.66 0 1.32 0 2 0 C5 5.75 5 5.75 5 8 C3.68 7.67 2.36 7.34 1 7 C0.67 4.69 0.34 2.38 0 0 Z " fill="#4A874E" transform="translate(106,286)"/>
<path d="M0 0 C0.99 0.33 1.98 0.66 3 1 C1.95125002 3.62187494 1.35068687 4.79371361 -1.125 6.25 C-1.74375 6.4975 -2.3625 6.745 -3 7 C-3.1875 4.625 -3.1875 4.625 -3 2 C-2.01 1.34 -1.02 0.68 0 0 Z " fill="#E9440F" transform="translate(121,150)"/>
<path d="M0 0 C1.32 0.99 2.64 1.98 4 3 C3.67 3.99 3.34 4.98 3 6 C0.9375 6.6875 0.9375 6.6875 -1 7 C-1 3 -1 3 0 0 Z " fill="#F2400C" transform="translate(357,81)"/>
<path d="M0 0 C0.99 0 1.98 0 3 0 C2.6875 2.375 2.6875 2.375 2 5 C1.01 5.66 0.02 6.32 -1 7 C-1.04254356 5.00045254 -1.04080783 2.99958364 -1 1 C-0.67 0.67 -0.34 0.34 0 0 Z " fill="#1E65AE" transform="translate(374,382)"/>
<path d="M0 0 C1.32 0.33 2.64 0.66 4 1 C4 1.66 4 2.32 4 3 C5.98 2.67 7.96 2.34 10 2 C9.67 3.32 9.34 4.64 9 6 C2.35384615 4.52307692 2.35384615 4.52307692 0.5625 1.875 C0.376875 1.25625 0.19125 0.6375 0 0 Z " fill="#EA420C" transform="translate(298,126)"/>
<path d="M0 0 C0.66 0.33 1.32 0.66 2 1 C-0.97 3.97 -3.94 6.94 -7 10 C-7.33 9.01 -7.66 8.02 -8 7 C-5.36 4.69 -2.72 2.38 0 0 Z " fill="#D64E1D" transform="translate(330,114)"/>
<path d="M0 0 C0.8971875 0.5259375 0.8971875 0.5259375 1.8125 1.0625 C-4.8125 4.1875 -4.8125 4.1875 -8.1875 3.0625 C-7.5275 3.0625 -6.8675 3.0625 -6.1875 3.0625 C-5.8575 2.0725 -5.5275 1.0825 -5.1875 0.0625 C-2.1875 -0.9375 -2.1875 -0.9375 0 0 Z " fill="#42733A" transform="translate(307.1875,430.9375)"/>
<path d="M0 0 C0 0.99 0 1.98 0 3 C-3 5.1875 -3 5.1875 -6 7 C-6.66 6.67 -7.32 6.34 -8 6 C-2.25 1.125 -2.25 1.125 0 0 Z " fill="#6DAB2E" transform="translate(79,295)"/>
<path d="M0 0 C0.99 0.33 1.98 0.66 3 1 C-0.28804981 3.91227269 -2.59885603 5.49701212 -7 6 C-7 5.34 -7 4.68 -7 4 C-6.01 4 -5.02 4 -4 4 C-4 3.34 -4 2.68 -4 2 C-2.68 2 -1.36 2 0 2 C0 1.34 0 0.68 0 0 Z " fill="#E5C71C" transform="translate(85,287)"/>
<path d="M0 0 C0.33 0 0.66 0 1 0 C1.25 2.8125 1.25 2.8125 1 6 C-1 7.875 -1 7.875 -3 9 C-2.25 2.25 -2.25 2.25 0 0 Z " fill="#A7811D" transform="translate(18,171)"/>
<path d="M0 0 C0.33 0.66 0.66 1.32 1 2 C1.99 2.33 2.98 2.66 4 3 C4 3.66 4 4.32 4 5 C4.66 5.33 5.32 5.66 6 6 C4.35 6.33 2.7 6.66 1 7 C1 6.01 1 5.02 1 4 C0.34 4 -0.32 4 -1 4 C-0.67 2.68 -0.34 1.36 0 0 Z " fill="#D5A40F" transform="translate(30,137)"/>
<path d="M0 0 C3.5786304 1.65167557 6.74820188 3.78286492 10 6 C9.01 6.495 9.01 6.495 8 7 C5.375 6.0625 5.375 6.0625 3 5 C3 4.34 3 3.68 3 3 C2.34 3 1.68 3 1 3 C0.67 2.01 0.34 1.02 0 0 Z " fill="#872E12" transform="translate(341,52)"/>
<path d="M0 0 C-0.33 1.65 -0.66 3.3 -1 5 C-2.9375 4.1875 -2.9375 4.1875 -5 3 C-5.33 2.01 -5.66 1.02 -6 0 C-2.25 -1.125 -2.25 -1.125 0 0 Z " fill="#217EB1" transform="translate(313,339)"/>
<path d="M0 0 C2.35448165 2.55068845 2.98327924 3.71017358 3.1875 7.25 C3.125625 8.1575 3.06375 9.065 3 10 C0.3144406 7.3144406 -0.06049974 4.62378672 -1 1 C-0.67 0.67 -0.34 0.34 0 0 Z " fill="#A1831F" transform="translate(28,319)"/>
<path d="M0 0 C1.32 0.33 2.64 0.66 4 1 C4 1.99 4 2.98 4 4 C2.02 4.33 0.04 4.66 -2 5 C-2 4.34 -2 3.68 -2 3 C-1.34 3 -0.68 3 0 3 C0 2.01 0 1.02 0 0 Z " fill="#F5B528" transform="translate(33,134)"/>
<path d="M0 0 C0.66 0.99 1.32 1.98 2 3 C0.02 3.33 -1.96 3.66 -4 4 C-4.33 4.99 -4.66 5.98 -5 7 C-5.33 5.68 -5.66 4.36 -6 3 C-4.02 2.01 -2.04 1.02 0 0 Z " fill="#EA4510" transform="translate(44,121)"/>
<path d="M0 0 C0.99 0.33 1.98 0.66 3 1 C1.02 3.31 -0.96 5.62 -3 8 C-3 4.42424104 -1.91159393 2.94704065 0 0 Z " fill="#F24004" transform="translate(328,112)"/>
<path d="M0 0 C0.99 0.33 1.98 0.66 3 1 C1.625 3 1.625 3 0 5 C-0.66 5 -1.32 5 -2 5 C-2 5.66 -2 6.32 -2 7 C-2.66 6.67 -3.32 6.34 -4 6 C-3.6875 4.125 -3.6875 4.125 -3 2 C-2.01 1.34 -1.02 0.68 0 0 Z " fill="#9D3311" transform="translate(357,87)"/>
<path d="M0 0 C0.99 0.33 1.98 0.66 3 1 C2.25 2.9375 2.25 2.9375 1 5 C-1.125 5.75 -1.125 5.75 -3 6 C-2.42655063 3.13275314 -2.1385485 2.1385485 0 0 Z " fill="#DF4916" transform="translate(367,74)"/>
<path d="M0 0 C-5.75 4 -5.75 4 -8 4 C-8.33 3.01 -8.66 2.02 -9 1 C-2.25 -1.125 -2.25 -1.125 0 0 Z " fill="#4A743D" transform="translate(347,411)"/>
<path d="M0 0 C-2.97 2.475 -2.97 2.475 -6 5 C-6.66 4.67 -7.32 4.34 -8 4 C-7.25 2.0625 -7.25 2.0625 -6 0 C-3.40292416 -1.05506206 -2.5386068 -1.2693034 0 0 Z " fill="#416B2E" transform="translate(363,399)"/>
<path d="M0 0 C0.28875 0.598125 0.5775 1.19625 0.875 1.8125 C2.04742026 4.19327792 2.04742026 4.19327792 4 7 C4.125 9.6875 4.125 9.6875 4 12 C0.46209597 8.30827405 0.40884117 4.90609405 0 0 Z " fill="#94761F" transform="translate(13,277)"/>
<path d="M0 0 C1.32 0.66 2.64 1.32 4 2 C1.6875 3.5625 1.6875 3.5625 -1 5 C-1.99 4.67 -2.98 4.34 -4 4 C-4 3.34 -4 2.68 -4 2 C-3.01 2 -2.02 2 -1 2 C-0.67 1.34 -0.34 0.68 0 0 Z " fill="#4D8141" transform="translate(323,421)"/>
<path d="M0 0 C3.3 0.33 6.6 0.66 10 1 C5.64467851 3.17766075 4.53374042 3.03039555 0 2 C0 1.34 0 0.68 0 0 Z " fill="#41783B" transform="translate(194,358)"/>
<path d="M0 0 C-3.8503105 2.56687367 -5.58569763 1.83288724 -10 1 C-10 0.67 -10 0.34 -10 0 C-6.30458414 -0.95024979 -3.69541586 -0.95024979 0 0 Z " fill="#46823D" transform="translate(259,358)"/>
<path d="M0 0 C0.33 0 0.66 0 1 0 C1 1.65 1 3.3 1 5 C-0.65 5.66 -2.3 6.32 -4 7 C-2.79618552 4.50638429 -1.54571278 2.31856917 0 0 Z " fill="#184476" transform="translate(330,303)"/>
<path d="M0 0 C0.33 0 0.66 0 1 0 C1 1.65 1 3.3 1 5 C0.01 5.33 -0.98 5.66 -2 6 C-2.33 6.99 -2.66 7.98 -3 9 C-3.33 8.34 -3.66 7.68 -4 7 C-3.67 6.01 -3.34 5.02 -3 4 C-2.34 4 -1.68 4 -1 4 C-0.67 2.68 -0.34 1.36 0 0 Z " fill="#225D91" transform="translate(345,276)"/>
<path d="M0 0 C0.33 0.99 0.66 1.98 1 3 C0.01 4.485 0.01 4.485 -1 6 C-1.99 5.67 -2.98 5.34 -4 5 C-2.25 1.125 -2.25 1.125 0 0 Z " fill="#EE4109" transform="translate(53,106)"/>
<path d="" fill="#000000" transform="translate(0,0)"/>
<path d="" fill="#000000" transform="translate(0,0)"/>
<path d="" fill="#000000" transform="translate(0,0)"/>
<path d="" fill="#000000" transform="translate(0,0)"/>
<path d="" fill="#000000" transform="translate(0,0)"/>
<path d="" fill="#000000" transform="translate(0,0)"/>
<path d="" fill="#000000" transform="translate(0,0)"/>
<path d="" fill="#000000" transform="translate(0,0)"/>
<path d="" fill="#000000" transform="translate(0,0)"/>
<path d="" fill="#000000" transform="translate(0,0)"/>
<path d="" fill="#000000" transform="translate(0,0)"/>
<path d="" fill="#000000" transform="translate(0,0)"/>
<path d="" fill="#000000" transform="translate(0,0)"/>
<path d="" fill="#000000" transform="translate(0,0)"/>
<path d="" fill="#000000" transform="translate(0,0)"/>
<path d="" fill="#000000" transform="translate(0,0)"/>
<path d="" fill="#000000" transform="translate(0,0)"/>
<path d="" fill="#000000" transform="translate(0,0)"/>
<path d="" fill="#000000" transform="translate(0,0)"/>
<path d="" fill="#000000" transform="translate(0,0)"/>
<path d="" fill="#000000" transform="translate(0,0)"/>
<path d="" fill="#000000" transform="translate(0,0)"/>
<path d="" fill="#000000" transform="translate(0,0)"/>
<path d="" fill="#000000" transform="translate(0,0)"/>
<path d="" fill="#000000" transform="translate(0,0)"/>
<path d="" fill="#000000" transform="translate(0,0)"/>
<path d="" fill="#000000" transform="translate(0,0)"/>
<path d="" fill="#000000" transform="translate(0,0)"/>
<path d="" fill="#000000" transform="translate(0,0)"/>
<path d="" fill="#000000" transform="translate(0,0)"/>
<path d="" fill="#000000" transform="translate(0,0)"/>
<path d="" fill="#000000" transform="translate(0,0)"/>
<path d="" fill="#000000" transform="translate(0,0)"/>
<path d="" fill="#000000" transform="translate(0,0)"/>
<path d="" fill="#000000" transform="translate(0,0)"/>
</svg>
