<?xml version="1.0" standalone="no"?>
<!DOCTYPE svg PUBLIC "-//W3C//DTD SVG 20010904//EN"
 "http://www.w3.org/TR/2001/REC-SVG-20010904/DTD/svg10.dtd">
<svg version="1.0" xmlns="http://www.w3.org/2000/svg"
 width="354.000000pt" height="395.000000pt" viewBox="0 0 354.000000 395.000000"
 preserveAspectRatio="xMidYMid meet">

<g transform="translate(0.000000,395.000000) scale(0.100000,-0.100000)"
fill="#000000" stroke="none">
<path d="M941 3526 c-8 -10 -10 -426 -9 -1562 l3 -1549 50 2 c147 8 537 41
543 47 3 4 8 300 9 658 2 358 5 653 7 656 9 8 32 -51 143 -367 63 -179 141
-402 174 -496 33 -93 81 -228 106 -300 25 -71 50 -136 57 -142 6 -7 63 -17
136 -23 69 -5 200 -17 291 -27 91 -9 173 -14 182 -10 16 6 17 116 17 1557 l0
1550 -27 11 c-33 12 -551 8 -571 -4 -11 -7 -13 -135 -12 -680 1 -370 1 -676 1
-682 -4 -43 -75 146 -251 665 -43 128 -111 320 -193 543 -29 82 -60 153 -68
158 -8 5 -141 9 -295 9 -225 0 -284 -3 -293 -14z"/>
</g>
</svg>
